<?xml version="1.0" encoding="UTF-8" standalone="no"?>
<svg width="23px" height="23px" viewBox="0 0 23 23" version="1.1" xmlns="http://www.w3.org/2000/svg" xmlns:xlink="http://www.w3.org/1999/xlink" xmlns:sketch="http://www.bohemiancoding.com/sketch/ns">
    <!-- Generator: Sketch 3.2.2 (9983) - http://www.bohemiancoding.com/sketch -->
    <title>btn / signal_strength_5</title>
    <desc>Created with Sketch.</desc>
    <defs></defs>
    <g id="Page-1" stroke="none" stroke-width="1" fill="none" fill-rule="evenodd" sketch:type="MSPage">
        <g id="btn-/-signal_strength_5" sketch:type="MSLayerGroup" stroke="#FCD228" fill="#FCD228">
            <ellipse id="Oval-939" stroke-width="0.833333333" sketch:type="MSShapeGroup" transform="translate(17.583333, 13.444444) scale(-1, -1) translate(-17.583333, -13.444444) " cx="17.5833333" cy="13.4444444" rx="0.833333333" ry="0.844444444"></ellipse>
            <ellipse id="Oval-953" stroke-width="0.833333333" sketch:type="MSShapeGroup" transform="translate(17.583333, 9.444444) scale(-1, -1) translate(-17.583333, -9.444444) " cx="17.5833333" cy="9.44444444" rx="0.833333333" ry="0.844444444"></ellipse>
            <ellipse id="Oval-955" stroke-width="0.833333333" sketch:type="MSShapeGroup" transform="translate(17.583333, 5.444444) scale(-1, -1) translate(-17.583333, -5.444444) " cx="17.5833333" cy="5.44444444" rx="0.833333333" ry="0.844444444"></ellipse>
            <ellipse id="Oval-937" stroke-width="0.833333333" sketch:type="MSShapeGroup" transform="translate(9.583333, 13.444444) scale(-1, -1) translate(-9.583333, -13.444444) " cx="9.58333333" cy="13.4444444" rx="0.833333333" ry="0.844444444"></ellipse>
            <ellipse id="Oval-954" stroke-width="0.833333333" sketch:type="MSShapeGroup" transform="translate(5.583333, 17.444444) scale(-1, -1) translate(-5.583333, -17.444444) " cx="5.58333333" cy="17.4444444" rx="0.833333333" ry="0.844444444"></ellipse>
            <ellipse id="Oval-959" stroke-width="0.833333333" sketch:type="MSShapeGroup" transform="translate(1.583333, 21.444444) scale(-1, -1) translate(-1.583333, -21.444444) " cx="1.58333333" cy="21.4444444" rx="0.833333333" ry="0.844444444"></ellipse>
            <ellipse id="Oval-968" stroke-width="0.833333333" sketch:type="MSShapeGroup" transform="translate(13.583333, 9.444444) scale(-1, -1) translate(-13.583333, -9.444444) " cx="13.5833333" cy="9.44444444" rx="0.833333333" ry="0.844444444"></ellipse>
            <ellipse id="Oval-969" stroke-width="0.833333333" sketch:type="MSShapeGroup" transform="translate(13.583333, 13.444444) scale(-1, -1) translate(-13.583333, -13.444444) " cx="13.5833333" cy="13.4444444" rx="0.833333333" ry="0.844444444"></ellipse>
            <ellipse id="Oval-970" stroke-width="0.833333333" sketch:type="MSShapeGroup" transform="translate(13.583333, 17.444444) scale(-1, -1) translate(-13.583333, -17.444444) " cx="13.5833333" cy="17.4444444" rx="0.833333333" ry="0.844444444"></ellipse>
            <ellipse id="Oval-971" stroke-width="0.833333333" sketch:type="MSShapeGroup" transform="translate(17.583333, 17.444444) scale(-1, -1) translate(-17.583333, -17.444444) " cx="17.5833333" cy="17.4444444" rx="0.833333333" ry="0.844444444"></ellipse>
            <ellipse id="Oval-972" stroke-width="0.833333333" sketch:type="MSShapeGroup" transform="translate(9.583333, 17.444444) scale(-1, -1) translate(-9.583333, -17.444444) " cx="9.58333333" cy="17.4444444" rx="0.833333333" ry="0.844444444"></ellipse>
            <ellipse id="Oval-973" stroke-width="0.833333333" sketch:type="MSShapeGroup" transform="translate(9.583333, 21.444444) scale(-1, -1) translate(-9.583333, -21.444444) " cx="9.58333333" cy="21.4444444" rx="0.833333333" ry="0.844444444"></ellipse>
            <ellipse id="Oval-974" stroke-width="0.833333333" sketch:type="MSShapeGroup" transform="translate(5.583333, 21.444444) scale(-1, -1) translate(-5.583333, -21.444444) " cx="5.58333333" cy="21.4444444" rx="0.833333333" ry="0.844444444"></ellipse>
            <ellipse id="Oval-975" stroke-width="0.833333333" sketch:type="MSShapeGroup" transform="translate(13.583333, 21.444444) scale(-1, -1) translate(-13.583333, -21.444444) " cx="13.5833333" cy="21.4444444" rx="0.833333333" ry="0.844444444"></ellipse>
            <ellipse id="Oval-976" stroke-width="0.833333333" sketch:type="MSShapeGroup" transform="translate(17.583333, 21.444444) scale(-1, -1) translate(-17.583333, -21.444444) " cx="17.5833333" cy="21.4444444" rx="0.833333333" ry="0.844444444"></ellipse>
            <ellipse id="Oval-981" stroke-width="0.5" opacity="0.3" sketch:type="MSShapeGroup" transform="translate(21.583333, 13.444444) scale(-1, -1) translate(-21.583333, -13.444444) " cx="21.5833333" cy="13.4444444" rx="0.833333333" ry="0.844444444"></ellipse>
            <ellipse id="Oval-964" stroke-width="0.5" opacity="0.3" sketch:type="MSShapeGroup" transform="translate(21.583333, 9.444444) scale(-1, -1) translate(-21.583333, -9.444444) " cx="21.5833333" cy="9.44444444" rx="0.833333333" ry="0.844444444"></ellipse>
            <ellipse id="Oval-987" stroke-width="0.5" opacity="0.3" sketch:type="MSShapeGroup" transform="translate(21.583333, 1.444444) scale(-1, -1) translate(-21.583333, -1.444444) " cx="21.5833333" cy="1.44444444" rx="0.833333333" ry="0.844444444"></ellipse>
            <ellipse id="Oval-963" stroke-width="0.5" opacity="0.3" sketch:type="MSShapeGroup" transform="translate(21.583333, 5.444444) scale(-1, -1) translate(-21.583333, -5.444444) " cx="21.5833333" cy="5.44444444" rx="0.833333333" ry="0.844444444"></ellipse>
            <ellipse id="Oval-980" stroke-width="0.5" opacity="0.3" sketch:type="MSShapeGroup" transform="translate(21.583333, 17.444444) scale(-1, -1) translate(-21.583333, -17.444444) " cx="21.5833333" cy="17.4444444" rx="0.833333333" ry="0.844444444"></ellipse>
            <ellipse id="Oval-979" stroke-width="0.5" opacity="0.3" sketch:type="MSShapeGroup" transform="translate(21.583333, 21.444444) scale(-1, -1) translate(-21.583333, -21.444444) " cx="21.5833333" cy="21.4444444" rx="0.833333333" ry="0.844444444"></ellipse>
        </g>
    </g>
</svg>