<?xml version="1.0" standalone="no"?>
<!DOCTYPE svg PUBLIC "-//W3C//DTD SVG 1.1//EN" "http://www.w3.org/Graphics/SVG/1.1/DTD/svg11.dtd" >
<svg xmlns="http://www.w3.org/2000/svg" xmlns:xlink="http://www.w3.org/1999/xlink" version="1.1">
<metadata>
Created by FontForge 20150102 at Sun Feb  1 20:16:24 2015
 By uniteet7
copyright missing
</metadata>
<defs>
<font id="NTWRKBook" horiz-adv-x="595" >
  <font-face 
    font-family="NTWRKBook"
    font-weight="400"
    font-stretch="normal"
    units-per-em="1000"
    panose-1="0 0 5 0 0 0 0 0 0 0"
    ascent="800"
    descent="-200"
    x-height="535"
    cap-height="700"
    bbox="-36 -302 985 1027"
    underline-thickness="50"
    underline-position="-50"
    unicode-range="U+0020-FB04"
  />
<missing-glyph horiz-adv-x="500" 
d="M500 800v-1000h-500v1000h500zM429 750h-358l179 -390zM50 676v-752l172 376zM450 -76v752l-172 -376zM429 -150l-179 390l-179 -390h358z" />
    <glyph glyph-name="f_f" unicode="ff" horiz-adv-x="705" 
d="M127 471h-92v64h92v39q0 90 29 118q28 28 83 28h82v-63h-68q-28 0 -39 -11q-13 -13 -13 -70v-41h121v-64h-120v-471h-75v471zM479 471h-92v64h92v39q0 90 29 118q28 28 83 28h82v-63h-68q-28 0 -39 -11q-13 -13 -13 -70v-41h121v-64h-120v-471h-75v471z" />
    <glyph glyph-name="fi" unicode="fi" horiz-adv-x="598" 
d="M431 634v96h88v-96h-88zM127 471h-92v64h92v39q0 90 29 118q28 28 83 28h82v-63h-68q-28 0 -39 -11q-13 -13 -13 -70v-41h121v-64h-120v-471h-75v471zM438 0v535h74v-535h-74z" />
    <glyph glyph-name="fl" unicode="fl" horiz-adv-x="598" 
d="M127 471h-92v64h92v39q0 90 29 118q28 28 83 28h82v-63h-68q-28 0 -39 -11q-13 -13 -13 -70v-41h121v-64h-120v-471h-75v471zM438 720h74v-720h-74v720z" />
    <glyph glyph-name="f_f_i" unicode="ffi" horiz-adv-x="950" 
d="M784 634v96h88v-96h-88zM127 471h-92v64h92v39q0 90 29 118q28 28 83 28h82v-63h-68q-28 0 -39 -11q-13 -13 -13 -70v-41h121v-64h-120v-471h-75v471zM479 471h-92v64h92v39q0 90 29 118q28 28 83 28h82v-63h-68q-28 0 -39 -11q-13 -13 -13 -70v-41h121v-64h-120v-471
h-75v471zM791 0v535h74v-535h-74z" />
    <glyph glyph-name="f_f_l" unicode="ffl" horiz-adv-x="950" 
d="M127 471h-92v64h92v39q0 90 29 118q28 28 83 28h82v-63h-68q-28 0 -39 -11q-13 -13 -13 -70v-41h121v-64h-120v-471h-75v471zM479 471h-92v64h92v39q0 90 29 118q28 28 83 28h82v-63h-68q-28 0 -39 -11q-13 -13 -13 -70v-41h121v-64h-120v-471h-75v471zM791 720h74v-720
h-74v720z" />
    <glyph glyph-name=".notdef" horiz-adv-x="500" 
d="M500 800v-1000h-500v1000h500zM429 750h-358l179 -390zM50 676v-752l172 376zM450 -76v752l-172 -376zM429 -150l-179 390l-179 -390h358z" />
    <glyph glyph-name=".null" horiz-adv-x="0" 
 />
    <glyph glyph-name="nonmarkingreturn" horiz-adv-x="333" 
 />
    <glyph glyph-name="space" unicode=" " horiz-adv-x="225" 
 />
    <glyph glyph-name="exclam" unicode="!" horiz-adv-x="334" 
d="M119 663v37h97v-37l-27 -463h-36zM213 0h-92v102h92v-102z" />
    <glyph glyph-name="quotedbl" unicode="&#x22;" horiz-adv-x="395" 
d="M63 700h101v-19l-30 -238h-41l-30 238v19zM237 700h101v-19l-30 -238h-41l-30 238v19z" />
    <glyph glyph-name="numbersign" unicode="#" horiz-adv-x="752" 
d="M288 700h71l-43 -176h199l43 176h71l-43 -176h123v-65h-138l-49 -202h122v-65h-138l-46 -192h-71l47 192h-199l-47 -192h-71l46 192h-122v65h138l49 202h-122v65h137zM453 254l50 208h-205l-49 -208h204z" />
    <glyph glyph-name="dollar" unicode="$" horiz-adv-x="659" 
d="M298 0h-79q-77 0 -107 30q-20 20 -28 55t-9 126h77q1 -69 5 -93.5t14 -34.5q15 -16 58 -16h71v253l-79 8q-77 7 -104 34q-18 19 -25 50t-7 98q0 65 9 101t31 58q31 31 105 31h68v80h65v-80h66q76 0 105 -29q21 -21 29 -55t9 -122h-76q-1 107 -19 123q-15 16 -55 16h-61
v-246l88 -8q76 -7 102 -33q19 -19 26.5 -51.5t7.5 -101.5t-9 -104.5t-31 -57.5q-31 -31 -103 -31h-79v-90h-65v90zM179 417q14 -13 62 -18l59 -6v240h-63q-40 0 -57 -16q-19 -19 -19 -106q0 -46 3.5 -64.5t14.5 -29.5zM361 67h72q40 0 57 16q19 19 19 109q0 49 -3.5 67.5
t-14.5 29.5q-14 14 -62 19l-68 6v-247z" />
    <glyph glyph-name="percent" unicode="%" horiz-adv-x="838" 
d="M400 366l228 337h64l-252 -367l-230 -339h-63zM340 523q0 -71 -8 -103.5t-26 -49.5q-26 -24 -76 -24h-50q-52 0 -76 24q-19 17 -27 49.5t-8 103.5t8 103.5t27 49.5q24 24 76 24h50q50 0 76 -24q18 -17 26 -49.5t8 -103.5zM279 523q0 96 -17 111q-12 12 -40 12h-34
q-28 0 -41 -12q-16 -16 -16 -111t16 -111q13 -12 41 -12h34q28 0 40 12q17 15 17 111zM770 177q0 -71 -8 -103.5t-27 -49.5q-24 -24 -76 -24h-50q-52 0 -76 24q-35 33 -35 153t35 153q24 24 76 24h50q52 0 76 -24q19 -17 27 -49.5t8 -103.5zM708 177q0 95 -16 111
q-14 12 -41 12h-34q-28 0 -40 -12q-17 -15 -17 -111t17 -111q12 -12 40 -12h34q27 0 41 12q16 16 16 111z" />
    <glyph glyph-name="ampersand" unicode="&#x26;" horiz-adv-x="694" 
d="M451 126h-9l-48 -66q-45 -61 -126 -61h-50q-83 0 -116 33q-23 23 -31.5 60t-8.5 111q0 78 6 107.5t28 50.5q26 27 99 36l7 1q-22 42 -22 111q0 73 7 107t27 54q30 30 113 30h65q71 0 98 -27q21 -20 28 -55t7 -112h-74q-1 99 -17 115q-13 14 -55 14h-46q-46 0 -60 -15
q-10 -10 -13 -32.5t-3 -79.5q0 -51 12 -77q7 -19 41 -56l128 -134h8l119 159h85l-159 -211l177 -189h-99zM234 64h23q56 0 84 38l57 76l-158 165l-33 -7q-36 -6 -53 -23q-17 -19 -17 -110q0 -57 5 -82.5t18 -38.5q18 -18 74 -18z" />
    <glyph glyph-name="quotesingle" unicode="'" horiz-adv-x="222" 
d="M63 700h101v-19l-30 -238h-41l-30 238v19z" />
    <glyph glyph-name="parenleft" unicode="(" horiz-adv-x="389" 
d="M99 275q0 159 9 209q6 36 35.5 85.5t99.5 140.5h56q-100 -167 -109 -216q-10 -49 -10 -219t10 -219q9 -49 109 -216h-56q-70 91 -99.5 140.5t-35.5 85.5q-9 50 -9 209z" />
    <glyph glyph-name="parenright" unicode=")" horiz-adv-x="389" 
d="M290 275q0 -159 -9 -209q-5 -36 -34.5 -85t-100.5 -141h-56q100 167 109 216q10 49 10 219t-10 219q-9 49 -109 216h56q71 -92 100.5 -141t34.5 -85q9 -50 9 -209z" />
    <glyph glyph-name="asterisk" unicode="*" horiz-adv-x="516" 
d="M248 577l-26 -15l-79 104l54 31zM267 577l51 120l55 -31l-79 -104zM213 515l-130 -16v62l130 -16v-30zM303 515v30l130 16v-62zM248 483l-51 -120l-54 31l79 104zM267 483l27 15l79 -104l-55 -31z" />
    <glyph glyph-name="plus" unicode="+" horiz-adv-x="514" 
d="M452 396v-66h-162v-162h-66v162h-162v66h162v162h66v-162h162z" />
    <glyph glyph-name="comma" unicode="," horiz-adv-x="228" 
d="M163 104v-100q0 -36 -22 -62l-84 -98l-28 22l68 98q8 13 8 28v8h-41v104h99z" />
    <glyph glyph-name="hyphen" unicode="-" horiz-adv-x="408" 
d="M63 356h282v-75h-282v75z" />
    <glyph glyph-name="period" unicode="." horiz-adv-x="230" 
d="M164 0h-97v104h97v-104z" />
    <glyph glyph-name="slash" unicode="/" horiz-adv-x="478" 
d="M375 710h75l-408 -870h-75z" />
    <glyph glyph-name="zero" unicode="0" horiz-adv-x="685" 
d="M269 700h147q53 0 81 -7.5t49 -26.5q31 -30 47 -97t16 -219t-16 -219t-47 -97q-21 -19 -49 -26.5t-81 -7.5h-147q-54 0 -81.5 7t-48.5 27q-32 29 -47.5 96t-15.5 220t15.5 220t47.5 96q21 20 48.5 27t81.5 7zM414 632h-143q-54 0 -75 -19q-18 -17 -27.5 -70t-9.5 -193
t9.5 -193t27.5 -70q21 -19 75 -19h143q54 0 75 19q18 18 27.5 71t9.5 192t-9.5 192t-27.5 71q-21 19 -75 19z" />
    <glyph glyph-name="one" unicode="1" horiz-adv-x="385" 
d="M183 621l-128 -50l-23 63l164 67h66v-701h-79v621z" />
    <glyph glyph-name="two" unicode="2" horiz-adv-x="643" 
d="M79 0v87q0 74 9.5 109t34.5 61q29 29 96 56l197 78q45 19 60 40q18 26 18 93t-23 88q-18 19 -70 19h-142q-47 0 -65 -19q-20 -21 -21 -118h-80q1 78 10.5 114.5t31.5 59.5q33 32 114 32h172q78 0 110 -32q44 -44 44 -144q0 -57 -8 -86.5t-27 -53.5q-24 -30 -102 -62
l-197 -78q-45 -19 -61 -37q-24 -27 -24 -101v-37h425v-69h-502z" />
    <glyph glyph-name="three" unicode="3" horiz-adv-x="654" 
d="M246 397h146q51 0 70 20q26 24 26 98q0 76 -26 100q-16 17 -68 17h-143q-51 0 -68 -17q-23 -21 -27 -120h-80q2 127 48 173q34 32 115 32h174q82 0 114 -32q45 -45 45 -147q0 -130 -91 -157v-1q48 -10 72.5 -49t24.5 -117q0 -120 -45 -165q-32 -32 -114 -32h-185
q-83 0 -115 32q-26 25 -36.5 68t-12.5 118h81q4 -111 26 -133q19 -17 69 -17h153q52 0 69 18q26 24 26 113q0 85 -25 112q-22 19 -70 19h-153v67z" />
    <glyph glyph-name="four" unicode="4" horiz-adv-x="653" 
d="M411 186h-362v28q0 31 18 60l260 383q16 25 29.5 34t35.5 9h96v-449h119v-65h-119v-186h-77v186zM135 251h276v384h-17z" />
    <glyph glyph-name="five" unicode="5" horiz-adv-x="660" 
d="M116 700h449v-71h-376l-18 -244h8q34 29 63.5 38t83.5 9h97q81 0 117 -35q25 -25 35.5 -65t10.5 -115t-10.5 -115t-35.5 -65q-37 -37 -117 -37h-187q-84 0 -115 32q-24 23 -33.5 57.5t-9.5 112.5h80q1 -95 23 -117q18 -17 65 -17h166q45 0 66 19q25 23 25 130
q0 104 -25 129q-21 18 -66 18h-105q-42 0 -74 -10.5t-73 -38.5l-68 24z" />
    <glyph glyph-name="six" unicode="6" horiz-adv-x="667" 
d="M197 612q-18 -18 -27.5 -71t-9.5 -190q43 32 67 42t58 10h144q89 0 124 -34q23 -23 31.5 -59t8.5 -106q0 -120 -46 -166q-37 -38 -122 -38h-155q-52 0 -81 8t-50 28q-31 29 -46 95t-15 219q0 151 15.5 218t47.5 97q22 20 50.5 27.5t83.5 7.5h150q77 0 107 -31
q23 -23 32 -56.5t9 -105.5h-80q-2 88 -22 108q-17 17 -63 17h-132q-57 0 -79 -20zM411 335h-147q-45 0 -104 -31q3 -183 38 -216q20 -20 76 -20h137q54 0 75 21q25 27 25 113q0 88 -23 112q-22 21 -77 21z" />
    <glyph glyph-name="seven" unicode="7" horiz-adv-x="585" 
d="M534 700v-51l-312 -649h-86l306 630h-394v70h486z" />
    <glyph glyph-name="eight" unicode="8" horiz-adv-x="671" 
d="M249 700h173q83 0 119 -37q46 -45 46 -144q0 -134 -93 -155v-1q100 -21 100 -167q0 -112 -46 -158q-39 -38 -125 -38h-174q-87 0 -125 38q-47 46 -47 158q0 146 100 167v1q-92 21 -92 155q0 100 45 144q37 37 119 37zM265 396h142q50 0 72 22q25 25 25 98q0 71 -25 96
q-20 20 -69 20h-149q-48 0 -68 -20q-25 -23 -25 -96q0 -75 25 -98q22 -22 72 -22zM261 68h149q54 0 75 21q26 26 26 109q0 84 -27 111q-24 23 -77 23h-143q-53 0 -77 -23q-27 -27 -27 -111q0 -81 26 -109q21 -21 75 -21z" />
    <glyph glyph-name="nine" unicode="9" horiz-adv-x="668" 
d="M471 88q19 18 27.5 65.5t9.5 181.5q-43 -31 -67 -41t-57 -10h-145q-88 0 -123 34q-23 23 -32 61t-9 111q0 126 46 172q38 38 122 38h156q52 0 80.5 -8t49.5 -28q31 -30 46.5 -96t15.5 -218q0 -150 -15.5 -217.5t-47.5 -97.5q-22 -20 -50.5 -27.5t-84.5 -7.5h-163
q-77 0 -108 31q-22 22 -31 55t-10 102h78q2 -83 22 -103q17 -17 62 -17h149q57 0 79 20zM258 352h147q46 0 103 30q-2 193 -37 230q-22 20 -76 20h-138q-54 0 -75 -21q-25 -27 -25 -118q0 -96 23 -120q22 -21 78 -21z" />
    <glyph glyph-name="colon" unicode=":" horiz-adv-x="232" 
d="M165 431h-97v104h97v-104zM165 0h-97v104h97v-104z" />
    <glyph glyph-name="semicolon" unicode=";" horiz-adv-x="231" 
d="M165 431h-99v104h99v-104zM164 104v-100q0 -37 -22 -62l-84 -98l-28 22l68 98q8 13 8 28v8h-41v104h99z" />
    <glyph glyph-name="less" unicode="&#x3c;" horiz-adv-x="506" 
d="M430 219v-75l-363 184v66l363 185v-74l-290 -143z" />
    <glyph glyph-name="equal" unicode="=" horiz-adv-x="514" 
d="M446 490v-71h-378v71h378zM446 307v-71h-378v71h378z" />
    <glyph glyph-name="greater" unicode="&#x3e;" horiz-adv-x="506" 
d="M366 360l-290 144v75l363 -185v-66l-363 -184v73z" />
    <glyph glyph-name="question" unicode="?" horiz-adv-x="542" 
d="M126 490h-77q0 87 7 123.5t28 57.5q29 29 103 29h159q73 0 104 -31q37 -37 37 -140q0 -61 -7.5 -88.5t-30.5 -50.5q-16 -17 -104 -56q-39 -18 -54 -33q-19 -19 -21 -96h-60v29q0 52 5.5 77t21.5 41q20 20 81 47q57 24 71 38q12 12 16 29.5t4 59.5q0 70 -19 91
q-16 14 -55 14h-137q-40 0 -54 -14q-17 -15 -18 -127zM285 0h-90v101h90v-101z" />
    <glyph glyph-name="at" unicode="@" horiz-adv-x="943" 
d="M715 92q46 0 66 20q18 19 26.5 65t8.5 145q0 248 -59 307q-23 24 -54.5 33.5t-95.5 9.5h-261q-67 0 -99 -11t-58 -37q-29 -30 -45.5 -107t-16.5 -242t16.5 -242t46.5 -108q25 -25 57.5 -36t98.5 -11h410v-28h-411q-75 0 -112 13.5t-66 41.5q-33 33 -51.5 114.5
t-18.5 255.5q0 300 70 370q29 28 66 41.5t112 13.5h265q72 0 108 -12.5t64 -39.5q64 -64 64 -326q0 -188 -44 -230q-30 -30 -81 -30h-25q-68 0 -111 60q-43 -37 -66 -48.5t-55 -11.5h-39q-69 0 -96 28q-21 20 -30.5 60.5t-9.5 128.5t9.5 128.5t30.5 60.5q27 28 96 28h39
q32 0 54.5 -11.5t64.5 -48.5l15 60h47l-6 -110v-220q0 -41 17 -58q16 -16 59 -16zM430 116h46q46 0 102 38v249q-58 39 -100 39h-48q-42 0 -58 -16q-20 -22 -20 -147t20 -147q16 -16 58 -16z" />
    <glyph glyph-name="A" unicode="A" horiz-adv-x="649" 
d="M175 214l-69 -214h-79l228 677q5 16 12 21t26 5h63q18 0 25.5 -5t12.5 -21l228 -677h-85l-69 214h-293zM446 281l-114 352h-21l-114 -352h249z" />
    <glyph glyph-name="B" unicode="B" horiz-adv-x="673" 
d="M95 700h350q76 0 108 -29q23 -21 33 -54.5t10 -101.5q0 -70 -23.5 -103.5t-73.5 -47.5v-1q58 -11 81 -47t23 -117q0 -78 -11 -112.5t-34 -55.5q-31 -31 -109 -31h-354v700zM174 397h256q47 0 64 16q23 23 23 103t-22 102q-14 14 -64 14h-257v-235zM524 198q0 91 -24 115
q-17 17 -64 17h-262v-262h263q49 0 64 14q23 23 23 116z" />
    <glyph glyph-name="C" unicode="C" horiz-adv-x="675" 
d="M536 229h78q-4 -95 -15.5 -135.5t-37.5 -65.5q-31 -28 -110 -28h-207q-79 0 -110 28q-30 29 -44 93t-14 229t14 229t44 93q31 28 110 28h207q79 0 110 -28q26 -25 38 -65t14 -125h-78q-3 110 -28 135q-17 15 -64 15h-191q-47 0 -64 -15q-32 -32 -32 -267t32 -267
q17 -15 64 -15h191q46 -1 64 15q25 25 29 146z" />
    <glyph glyph-name="D" unicode="D" horiz-adv-x="698" 
d="M95 700h316q101 0 148 -43q34 -33 51.5 -103t17.5 -204t-17.5 -204t-51.5 -103q-47 -43 -148 -43h-316v700zM548 349q0 213 -48 258q-16 15 -34.5 20t-54.5 5h-237v-564h237q64 0 89 25q48 45 48 256z" />
    <glyph glyph-name="E" unicode="E" horiz-adv-x="612" 
d="M95 0v700h465v-68h-386v-235h331v-67h-331v-262h383v-68h-462z" />
    <glyph glyph-name="F" unicode="F" horiz-adv-x="570" 
d="M174 383h299v-67h-299v-316h-79v700h439v-68h-360v-249z" />
    <glyph glyph-name="G" unicode="G" horiz-adv-x="690" 
d="M244 700h208q79 0 110 -28q27 -26 38 -64t13 -120h-77q-4 106 -28 129q-15 15 -63 15h-194q-47 0 -64 -15q-10 -10 -15.5 -28.5t-10.5 -78t-5 -160.5t5 -160.5t10.5 -78t15.5 -28.5q17 -15 64 -15h194q45 -1 63 15q30 30 30 181v22h-190v68h269v-56q0 -133 -12.5 -187.5
t-42.5 -82.5q-31 -28 -110 -28h-209q-79 0 -110 28q-30 29 -43.5 93t-13.5 229t13.5 229t43.5 93q31 28 111 28z" />
    <glyph glyph-name="H" unicode="H" horiz-adv-x="735" 
d="M561 0v329h-387v-329h-79v700h79v-303h387v303h79v-700h-79z" />
    <glyph glyph-name="I" unicode="I" horiz-adv-x="276" 
d="M99 700h79v-700h-79v700z" />
    <glyph glyph-name="J" unicode="J" horiz-adv-x="570" 
d="M37 223h76q4 -116 26 -137q18 -18 64 -18h72q79 0 97 18q15 16 22.5 56t7.5 136v422h79v-416q0 -121 -11.5 -171.5t-39.5 -79.5q-20 -19 -52.5 -26.5t-93.5 -7.5h-86q-84 0 -116 31q-24 24 -33.5 64.5t-11.5 128.5z" />
    <glyph glyph-name="K" unicode="K" horiz-adv-x="627" 
d="M316 368l295 -368h-95l-262 329h-80v-329h-79v700h79v-303h78l260 303h93z" />
    <glyph glyph-name="L" unicode="L" horiz-adv-x="561" 
d="M530 68v-68h-435v700h79v-632h356z" />
    <glyph glyph-name="M" unicode="M" horiz-adv-x="885" 
d="M709 0v626h-12l-200 -599q-5 -17 -11 -22t-22 -5h-47q-16 0 -22 5t-11 22l-200 605h-12v-632h-77v700h120q17 0 24 -6t12 -22l187 -574h12l186 574q5 16 12 22t24 6h117v-700h-80z" />
    <glyph glyph-name="N" unicode="N" horiz-adv-x="726" 
d="M631 0h-81q-19 0 -28 5.5t-17 21.5l-321 571h-12v-598h-77v700h87q18 0 27 -5.5t17 -22.5l315 -556h13v584h77v-700z" />
    <glyph glyph-name="O" unicode="O" horiz-adv-x="704" 
d="M244 700h216q81 0 110 -28q31 -28 44.5 -92t13.5 -230t-13.5 -230t-44.5 -92q-29 -28 -110 -28h-216q-79 0 -110 28q-30 29 -44 93t-14 229t14 229t44 93q31 28 110 28zM156 350q0 -235 32 -267q17 -15 64 -15h200q46 -1 64 15q10 9 16 28t11 78.5t5 160.5t-5 160.5
t-11 78.5t-16 28q-17 15 -64 15h-200q-47 0 -64 -15q-32 -32 -32 -267z" />
    <glyph glyph-name="P" unicode="P" horiz-adv-x="633" 
d="M586 487q0 -79 -13 -118.5t-38 -62.5q-28 -28 -107 -28h-254v-278h-79v700h333q79 0 107 -28q25 -23 38 -63t13 -122zM174 346h237q51 0 67 15q28 26 28 128t-28 128q-16 15 -67 15h-237v-286z" />
    <glyph glyph-name="Q" unicode="Q" horiz-adv-x="704" 
d="M392 0h-148q-79 0 -110 28q-30 29 -44 93t-14 229t14 229t44 93q31 28 110 28h216q81 0 110 -28q31 -28 44.5 -92t13.5 -230t-13.5 -230t-44.5 -92q-29 -28 -103 -28l37 -108h-75zM156 350q0 -235 32 -267q17 -15 64 -15h117l-51 143h76l49 -143h9q47 0 64 15q10 9 16 28
t11 78.5t5 160.5t-5 160.5t-11 78.5t-16 28q-17 15 -64 15h-200q-47 0 -64 -15q-32 -32 -32 -267z" />
    <glyph glyph-name="R" unicode="R" horiz-adv-x="679" 
d="M511 184q-2 81 -25 101q-20 19 -78 19h-234v-304h-79v700h354q73 0 103 -29q22 -22 33 -58t11 -107q0 -87 -24 -123t-80 -48v-1q55 -13 75 -40.5t24 -107.5q5 -135 11 -186h-78q-10 65 -13 184zM174 370h254q44 0 61 17q28 28 28 115q0 89 -27 116q-14 14 -60 14h-256
v-262z" />
    <glyph glyph-name="S" unicode="S" horiz-adv-x="666" 
d="M595 193q0 -69 -9 -104.5t-32 -57.5q-31 -31 -102 -31h-239q-74 0 -102 29q-21 21 -29 56t-9 126h77q1 -70 5 -94t14 -34q15 -15 56 -15h215q43 0 58 16q19 19 19 108q0 49 -3.5 68t-14.5 30q-16 14 -62 18l-219 20q-75 7 -103 35q-19 19 -26 49.5t-7 97.5q0 65 9 101
t32 58q29 31 101 31h217q75 0 103 -29q21 -21 29 -55t9 -122h-78q-1 105 -18 123q-17 15 -56 15h-194q-42 0 -58 -16q-18 -19 -18 -105q0 -46 3.5 -64.5t14.5 -29.5q13 -13 62 -17l219 -20q74 -7 102 -35q19 -19 26.5 -51t7.5 -101z" />
    <glyph glyph-name="T" unicode="T" horiz-adv-x="580" 
d="M330 0h-79v632h-228v68h535v-68h-228v-632z" />
    <glyph glyph-name="U" unicode="U" horiz-adv-x="723" 
d="M627 700v-415q0 -120 -11 -170t-39 -79q-37 -36 -145 -36h-145q-106 0 -142 36q-28 28 -39 77.5t-11 171.5v415h79v-429q0 -95 7 -131t23 -52q19 -19 98 -19h121q78 0 97 19q15 16 22 51.5t7 131.5v429h78z" />
    <glyph glyph-name="V" unicode="V" horiz-adv-x="636" 
d="M608 700l-221 -678q-5 -16 -12 -20.5t-27 -4.5h-61q-19 0 -27 5t-12 20l-221 678h85l198 -626h20l198 626h80z" />
    <glyph glyph-name="W" unicode="W" horiz-adv-x="943" 
d="M905 700l-155 -679q-3 -15 -10.5 -19.5t-28.5 -4.5h-49q-20 0 -27.5 4.5t-11.5 20.5l-143 580h-16l-143 -580q-3 -15 -10.5 -20t-28.5 -5h-49q-21 0 -28.5 4.5t-10.5 19.5l-156 679h83l130 -606h16l143 579q4 18 12.5 24t29.5 6h44q21 0 29 -6t12 -24l143 -579h15
l131 606h79z" />
    <glyph glyph-name="X" unicode="X" horiz-adv-x="625" 
d="M307 293l-199 -293h-85l243 356l-236 344h92l191 -279h8l189 279h87l-235 -343l242 -357h-88l-202 293h-7z" />
    <glyph glyph-name="Y" unicode="Y" horiz-adv-x="589" 
d="M335 0h-79v277l-244 423h86l195 -342h6l193 342h85l-242 -422v-278z" />
    <glyph glyph-name="Z" unicode="Z" horiz-adv-x="618" 
d="M50 0v51l422 581h-402v68h503v-51l-423 -581h418v-68h-518z" />
    <glyph glyph-name="bracketleft" unicode="[" horiz-adv-x="424" 
d="M360 637h-187v-724h187v-63h-258v850h258v-63z" />
    <glyph glyph-name="backslash" unicode="\" horiz-adv-x="476" 
d="M101 710l408 -870h-73l-408 870h73z" />
    <glyph glyph-name="bracketright" unicode="]" horiz-adv-x="424" 
d="M64 -150v63h187v724h-187v63h259v-850h-259z" />
    <glyph glyph-name="asciicircum" unicode="^" horiz-adv-x="514" 
d="M138 478h-53v5l148 220h47l148 -220v-5h-54l-118 166z" />
    <glyph glyph-name="underscore" unicode="_" horiz-adv-x="500" 
d="M502 -65v-60h-504v60h504z" />
    <glyph glyph-name="grave" unicode="`" horiz-adv-x="500" 
d="M127 719v5h116l92 -113v-5h-67z" />
    <glyph glyph-name="a" unicode="a" horiz-adv-x="572" 
d="M155 376h-72q1 96 34 130q29 29 99 29h144q74 0 101 -28q17 -17 22.5 -42.5t5.5 -80.5v-384h-73v68q-53 -42 -79.5 -55.5t-66.5 -13.5h-78q-71 0 -100 30q-32 30 -32 116q0 89 33 122q19 19 50.5 27.5t103.5 8.5q91 0 169 -13v89q0 66 -15 81q-13 13 -56 13h-110
q-47 0 -62 -15q-17 -18 -18 -82zM207 62h75q35 0 62.5 10t71.5 38v136h-174q-45 0 -63 -4t-28 -14q-18 -18 -18 -73q0 -63 16 -78t58 -15z" />
    <glyph glyph-name="b" unicode="b" horiz-adv-x="597" 
d="M160 720v-256q55 45 83 58.5t69 13.5h62q81 0 114 -33q24 -25 33 -71.5t9 -163.5q0 -118 -9 -164.5t-33 -71.5q-33 -33 -114 -33h-62q-41 0 -70 14t-82 58v-71h-74v720h74zM359 470h-68q-33 0 -61 -10.5t-70 -37.5v-308q43 -27 71.5 -38t61.5 -11h66q54 0 73 19
q14 14 19 50t5 134t-5 133.5t-19 49.5q-19 19 -73 19z" />
    <glyph glyph-name="c" unicode="c" horiz-adv-x="552" 
d="M425 181h72q-2 -71 -10.5 -102.5t-28.5 -51.5q-27 -27 -95 -27h-141q-79 0 -109 30q-26 26 -36 73.5t-10 164.5q0 116 10 163.5t36 73.5q30 30 109 30h140q69 0 96 -27q19 -19 27.5 -51t9.5 -97h-72q-3 78 -20 95q-14 14 -56 14h-117q-50 0 -65 -15q-13 -13 -18.5 -49
t-5.5 -137q0 -102 5.5 -138t18.5 -49q16 -15 65 -15h117q43 0 58 14q18 18 20 101z" />
    <glyph glyph-name="d" unicode="d" horiz-adv-x="599" 
d="M439 0v71q-55 -44 -83.5 -58t-68.5 -14h-64q-81 0 -114 33q-24 25 -33 71.5t-9 164.5q0 117 9 163.5t33 71.5q33 33 114 33h64q40 0 68.5 -14t83.5 -58v256h74v-720h-74zM238 65h68q33 0 61 11t72 39v305q-43 28 -70.5 39t-60.5 11h-70q-53 0 -72 -19q-15 -15 -20 -50.5
t-5 -132.5t5 -133t20 -51q21 -19 72 -19z" />
    <glyph glyph-name="e" unicode="e" horiz-adv-x="575" 
d="M498 244h-357q1 -86 6.5 -119t17.5 -45q15 -15 64 -15h133q43 0 58 15q17 17 18 84h72q-1 -60 -9 -88t-28 -48q-28 -28 -97 -28h-154q-79 0 -109 30q-26 26 -36 73.5t-10 164.5q0 116 10 163.5t36 73.5q30 30 109 30h134q79 0 108 -29q26 -27 36 -73.5t10 -159.5v-17
q0 -12 -12 -12zM164 454q-12 -12 -17 -41.5t-6 -109.5h296q-1 78 -6.5 109t-18.5 43q-16 16 -64 16h-119q-48 0 -65 -17z" />
    <glyph glyph-name="f" unicode="f" horiz-adv-x="353" 
d="M127 471h-92v64h92v39q0 90 29 118q28 28 83 28h82v-63h-68q-28 0 -39 -11q-13 -13 -13 -70v-41h121v-64h-120v-471h-75v471z" />
    <glyph glyph-name="g" unicode="g" horiz-adv-x="598" 
d="M385 -150h-189q-58 0 -86 26q-28 28 -29 104h74q1 -43 16 -56q11 -12 49 -12h151q38 0 51 13q16 16 16 79v114q-54 -44 -83 -57.5t-69 -13.5h-62q-81 0 -114 33q-24 25 -33 67.5t-9 144.5t9 144t33 67q33 33 114 33h62q41 0 69.5 -14t82.5 -58v71h74v-523
q0 -61 -7.5 -88.5t-26.5 -46.5q-26 -27 -93 -27zM239 112h69q33 0 60.5 11t69.5 38v259q-43 28 -71.5 39.5t-61.5 11.5h-66q-53 0 -72 -19q-15 -15 -20 -45t-5 -115q0 -86 5 -115.5t20 -44.5q18 -20 72 -20z" />
    <glyph glyph-name="h" unicode="h" 
d="M86 720h74v-256q55 44 83 58t69 14h78q64 0 93 -28q28 -29 28 -107v-401h-74v396q0 43 -16 59q-15 15 -60 15h-70q-33 0 -60.5 -10.5t-70.5 -37.5v-422h-74v720z" />
    <glyph glyph-name="i" unicode="i" horiz-adv-x="245" 
d="M79 634v96h88v-96h-88zM86 0v535h74v-535h-74z" />
    <glyph glyph-name="j" unicode="j" horiz-adv-x="256" 
d="M90 634v96h88v-96h-88zM97 535v-560q0 -36 -13 -51q-13 -11 -44 -11h-44v-60q30 -5 54 -5q63 0 91 28q30 30 30 113v546h-74z" />
    <glyph glyph-name="k" unicode="k" horiz-adv-x="522" 
d="M86 720h74v-419h55l197 234h89l-228 -261l236 -274h-93l-203 239h-53v-239h-74v720z" />
    <glyph glyph-name="l" unicode="l" horiz-adv-x="245" 
d="M86 720h74v-720h-74v720z" />
    <glyph glyph-name="m" unicode="m" horiz-adv-x="906" 
d="M160 535v-71q55 44 83 58t69 14h58q64 0 92 -28q18 -18 24 -48q59 47 87.5 61.5t69.5 14.5h58q64 0 93 -28q28 -29 28 -107v-401h-74v396q0 43 -16 59q-15 15 -60 15h-50q-33 0 -61.5 -10.5t-70.5 -37.5q1 -7 1 -21v-401h-74v396q0 43 -16 59q-15 15 -61 15h-49
q-33 0 -60.5 -10.5t-70.5 -37.5v-422h-74v535h74z" />
    <glyph glyph-name="n" unicode="n" 
d="M86 535h74v-71q55 44 83 58t69 14h78q64 0 93 -28q28 -29 28 -107v-401h-74v396q0 43 -16 59q-15 15 -60 15h-70q-33 0 -60.5 -10.5t-70.5 -37.5v-422h-74v535z" />
    <glyph glyph-name="o" unicode="o" horiz-adv-x="584" 
d="M362 0h-140q-79 0 -109 30q-26 26 -36 73.5t-10 164.5q0 116 10 163.5t36 73.5q30 30 109 30h140q79 0 108 -30q27 -26 37 -73t10 -164t-10 -164.5t-37 -73.5q-29 -30 -108 -30zM141 268q0 -102 5.5 -138t18.5 -49q16 -15 65 -15h124q49 0 64 15q13 13 19 49.5t6 137.5
q0 100 -6 136.5t-19 49.5q-14 15 -64 15h-124q-50 0 -65 -15q-13 -13 -18.5 -49t-5.5 -137z" />
    <glyph glyph-name="p" unicode="p" horiz-adv-x="597" 
d="M160 535v-71q55 45 83 58.5t69 13.5h62q81 0 114 -33q24 -25 33 -71.5t9 -163.5q0 -118 -9 -164.5t-33 -71.5q-33 -33 -114 -33h-62q-41 0 -70 14t-82 58v-221h-74v685h74zM359 470h-68q-33 0 -61 -10.5t-70 -37.5v-308q43 -27 71.5 -38t61.5 -11h66q53 0 72 19
q15 15 20 50t5 134q0 98 -5 133.5t-20 49.5q-18 19 -72 19z" />
    <glyph glyph-name="q" unicode="q" horiz-adv-x="597" 
d="M438 -150v222q-55 -45 -83.5 -59t-68.5 -14h-63q-81 0 -114 33q-24 25 -33 71.5t-9 164.5q0 117 9 163.5t33 71.5q33 33 114 33h63q40 0 68.5 -14t83.5 -58v71h74v-685h-74zM238 65h66q33 0 61.5 11t72.5 39v306q-42 27 -70 38t-61 11h-69q-53 0 -72 -19
q-15 -15 -20 -50.5t-5 -132.5t5 -133t20 -51q21 -19 72 -19z" />
    <glyph glyph-name="r" unicode="r" horiz-adv-x="388" 
d="M86 535h74v-87q51 54 76.5 71t57.5 17h64v-76h-71q-33 0 -59.5 -9t-67.5 -37v-414h-74v535z" />
    <glyph glyph-name="s" unicode="s" horiz-adv-x="551" 
d="M488 151q0 -94 -33 -127q-24 -24 -79 -24h-196q-62 0 -85 23q-18 18 -24 44.5t-7 94.5h68q2 -74 16 -88q12 -12 45 -12h166q31 0 44 13q15 15 15 72q0 56 -13 67q-11 13 -51 15l-170 17q-66 7 -86 27q-15 15 -21 39.5t-6 75.5q0 90 33 123q24 24 79 24h185q59 0 82 -23
q17 -17 23.5 -44t7.5 -91h-68q-2 70 -16 84q-12 12 -45 12h-153q-30 0 -42 -12q-16 -16 -16 -69t12 -64q11 -12 52 -16l172 -17q64 -5 85 -26q26 -26 26 -118z" />
    <glyph glyph-name="t" unicode="t" horiz-adv-x="376" 
d="M337 16l-47 -12q-38 -8 -72 -8q-54 0 -79 25q-23 23 -23 84v366h-92v64h92v134h75v-134h147v-64h-147v-349q0 -37 11 -47q9 -11 47 -11h88v-48z" />
    <glyph glyph-name="u" unicode="u" 
d="M510 0h-74v72q-55 -45 -83.5 -59t-69.5 -14h-78q-64 0 -92 29q-29 28 -29 106v401h74v-396q0 -43 16 -58q16 -16 61 -16h70q33 0 60.5 10t70.5 38v422h74v-535z" />
    <glyph glyph-name="v" unicode="v" horiz-adv-x="514" 
d="M491 535l-178 -513q-5 -15 -11.5 -20t-21.5 -5h-46q-15 0 -21.5 5t-11.5 20l-178 513h81l149 -456h13l148 456h77z" />
    <glyph glyph-name="w" unicode="w" horiz-adv-x="752" 
d="M204 79h12l105 431q4 15 10.5 20.5t22.5 5.5h48q15 0 22 -5.5t11 -20.5l107 -431h12l95 456h72l-118 -512q-3 -15 -10 -20.5t-22 -5.5h-53q-15 0 -21.5 5.5t-10.5 20.5l-105 425h-10l-105 -425q-5 -26 -32 -26h-53q-15 0 -21.5 5t-10.5 21l-118 512h77z" />
    <glyph glyph-name="x" unicode="x" horiz-adv-x="509" 
d="M207 272l-186 263h86l146 -209h9l143 209h82l-186 -265l190 -270h-86l-151 215h-8l-147 -215h-81z" />
    <glyph glyph-name="y" unicode="y" horiz-adv-x="532" 
d="M270 101h7l147 434h79l-225 -627q-12 -33 -31.5 -46.5t-55.5 -13.5q-33 0 -103 7v60h97q21 0 30 23l22 60l-212 537h84z" />
    <glyph glyph-name="z" unicode="z" horiz-adv-x="504" 
d="M44 0v44l318 425h-304v66h403v-41l-321 -428h318v-66h-414z" />
    <glyph glyph-name="braceleft" unicode="{" horiz-adv-x="444" 
d="M67 252v46q90 10 111 28q12 12 12 37q0 14 -9 71.5t-9 86.5q0 36 25.5 73.5t107.5 115.5h57q-69 -81 -92 -118.5t-23 -61.5q0 -27 9 -82.5t9 -75.5q0 -43 -20.5 -63.5t-82.5 -32.5v-2q61 -12 82 -33.5t21 -65.5q0 -19 -9 -75.5t-9 -79.5q0 -24 23 -61.5t92 -118.5h-57
q-82 78 -107.5 115.5t-25.5 73.5q0 27 9 85t9 76q0 22 -11 33q-19 19 -112 29z" />
    <glyph glyph-name="bar" unicode="|" horiz-adv-x="319" 
d="M126 780h67v-940h-67v940z" />
    <glyph glyph-name="braceright" unicode="}" horiz-adv-x="444" 
d="M376 298v-46q-94 -10 -111 -29q-11 -10 -11 -33q0 -18 9 -76t9 -85q0 -36 -25.5 -73.5t-107.5 -115.5h-57q69 81 92 118.5t23 61.5q0 23 -9 79.5t-9 75.5q0 44 21 65.5t81 33.5v2q-61 12 -81.5 32.5t-20.5 63.5q0 20 9 75.5t9 82.5q0 24 -23 61.5t-92 118.5h57
q82 -78 107.5 -115.5t25.5 -73.5q0 -29 -9 -86.5t-9 -71.5q0 -25 12 -37q18 -18 110 -28z" />
    <glyph glyph-name="asciitilde" unicode="~" horiz-adv-x="444" 
d="M76 260v66q0 29 11 40t31 11h11q24 0 63 -16l116 -45l22 60h38v-66q0 -29 -11 -40t-31 -11h-10q-23 0 -64 16l-116 45l-21 -60h-39z" />
    <glyph glyph-name="uni00A0" unicode="&#xa0;" horiz-adv-x="189" 
 />
    <glyph glyph-name="exclamdown" unicode="&#xa1;" horiz-adv-x="333" 
d="M121 700h90v-101h-90v101zM214 37v-37h-95v37l27 463h33z" />
    <glyph glyph-name="cent" unicode="&#xa2;" horiz-adv-x="559" 
d="M258 93h-30q-78 0 -109 31q-26 26 -36 72t-10 157q0 110 10 156t36 72q31 31 109 31h30v91h62v-91h40q68 0 96 -28q20 -19 28.5 -50.5t9.5 -97.5h-70q-4 81 -20 97q-14 14 -58 14h-29v-389h30q45 0 59 15q18 16 19 102h70q-1 -72 -9.5 -103t-28.5 -51q-28 -28 -96 -28
h-41v-96h-62v96zM170 174q16 -16 64 -16h27v389h-27q-48 0 -64 -15q-13 -14 -18.5 -49t-5.5 -130t5.5 -130.5t18.5 -48.5z" />
    <glyph glyph-name="sterling" unicode="&#xa3;" horiz-adv-x="668" 
d="M59 0v68h97v226h-96v65h96v127q0 79 10 118t34 63q19 19 48.5 26.5t86.5 7.5h101q87 0 118 -31q23 -24 32 -60.5t10 -121.5h-76q-2 106 -25 127q-17 18 -70 18h-90q-59 0 -77 -18q-24 -24 -24 -122v-134h210v-65h-210v-226h366v-68h-541z" />
    <glyph glyph-name="yen" unicode="&#xa5;" horiz-adv-x="660" 
d="M369 250v-250h-79v250h-181v65h158l-215 385h86l190 -342h6l188 342h83l-215 -385h157v-65h-178z" />
    <glyph glyph-name="section" unicode="&#xa7;" horiz-adv-x="655" 
d="M61 359q0 75 30 105q23 23 71 24q-14 27 -14 78q0 72 33 105q30 30 105 30h99q65 0 91 -26q18 -18 25.5 -45t8.5 -91h-72q-1 68 -18 85q-13 13 -51 13h-77q-41 0 -55 -14q-15 -15 -15 -62q0 -39 15 -56q15 -13 54 -17l188 -17q66 -5 89 -28q27 -29 27 -103
q0 -72 -30 -104q-24 -24 -72 -25q15 -28 15 -78q0 -71 -33 -104q-30 -30 -105 -30h-100q-63 0 -91 25q-18 19 -25 46t-8 91h72q1 -69 17 -85q14 -14 51 -14h78q40 0 55 15t15 62q0 39 -15 56q-15 13 -55 17l-187 17q-66 5 -89 28q-27 27 -27 102zM130 362q0 -44 13 -58
q13 -13 58 -16l254 -21q41 -4 54 9q17 17 17 61t-14 59q-12 13 -57 16l-255 21q-40 4 -53 -9q-17 -17 -17 -62z" />
    <glyph glyph-name="dieresis" unicode="&#xa8;" horiz-adv-x="500" 
d="M199 719v-95h-83v95h83zM384 719v-95h-83v95h83z" />
    <glyph glyph-name="copyright" unicode="&#xa9;" horiz-adv-x="789" 
d="M155 52q-66 68 -66 298t66 298q26 27 61.5 39.5t106.5 12.5h142q71 0 107 -12.5t62 -39.5q65 -67 65 -298t-65 -298q-26 -27 -62 -39.5t-107 -12.5h-142q-71 0 -106.5 12.5t-61.5 39.5zM117 350q0 -221 59 -280q23 -24 54.5 -34.5t97.5 -10.5h133q66 0 97.5 10t53.5 34
q60 62 60 281q0 220 -60 280q-23 24 -54.5 34.5t-96.5 10.5h-133q-66 0 -98 -10t-54 -34q-59 -61 -59 -281zM493 289h47q-2 -51 -8 -74t-21 -36q-16 -16 -60 -16h-109q-45 0 -61 15q-17 16 -24.5 51t-7.5 126q0 92 7.5 126.5t24.5 50.5t61 16h109q44 0 60 -16
q27 -25 28 -104h-46q-1 56 -15 70q-8 8 -35 8h-93q-28 0 -36 -9q-17 -15 -17 -142q0 -125 17 -142q9 -9 36 -9h93q26 0 35 9q14 14 15 76z" />
    <glyph glyph-name="ordfeminine" unicode="&#xaa;" horiz-adv-x="480" 
d="M336 315v48q-36 -30 -56.5 -39.5t-48.5 -9.5h-50q-52 0 -75 23q-24 24 -24 85q0 68 24 90q27 27 108 27q66 0 122 -10v60q0 43 -9 53q-8 8 -38 8h-83q-29 0 -38 -9q-11 -11 -12 -56h-57q1 70 25 94q21 21 72 21h102q53 0 73 -19q21 -22 21 -90v-276h-56zM193 364h47
q26 0 45.5 7t50.5 27v95h-122q-52 0 -63 -11q-11 -12 -11 -53q0 -43 11 -54q13 -11 42 -11zM396 227v-50h-313v50h313z" />
    <glyph glyph-name="guillemotleft" unicode="&#xab;" horiz-adv-x="574" 
d="M214 452h85l-171 -184l172 -184h-86l-154 159v49zM426 452h85l-171 -184l172 -184h-86l-154 159v49z" />
    <glyph glyph-name="registered" unicode="&#xae;" horiz-adv-x="454" 
d="M269 314h-84q-63 0 -92 29q-37 39 -37 164t37 164q29 29 92 29h84q63 0 92 -29q37 -39 37 -164t-37 -164q-29 -29 -92 -29zM186 333h82q55 0 78 23q31 31 31 151t-31 151q-23 23 -78 23h-82q-55 0 -78 -23q-31 -31 -31 -151t31 -151q23 -23 78 -23zM277 460q0 23 -6 29
q-8 6 -25 6h-64v-89h-27v211h106q23 0 32 -10q13 -13 13 -49q0 -45 -30 -52v-1q16 -3 22 -11t7 -31q2 -48 4 -57h-28q-4 16 -4 54zM279 556q0 22 -8 33q-4 4 -18 4h-71v-75h70q14 0 18 4q9 9 9 34z" />
    <glyph glyph-name="macron" unicode="&#xaf;" horiz-adv-x="500" 
d="M396 677v-61h-292v61h292z" />
    <glyph glyph-name="degree" unicode="&#xb0;" horiz-adv-x="417" 
d="M352 537q0 -63 -7.5 -92t-24.5 -46q-23 -25 -77 -25h-69q-54 0 -77 25q-17 18 -24.5 47t-7.5 91t7.5 91t24.5 47q23 25 77 25h69q54 0 77 -25q17 -17 24.5 -46t7.5 -92zM180 427h57q29 0 41 12q16 18 16 98t-16 98q-12 12 -41 12h-57q-29 0 -41 -12q-16 -18 -16 -98
t16 -98q12 -12 41 -12z" />
    <glyph glyph-name="plusminus" unicode="&#xb1;" horiz-adv-x="514" 
d="M452 456v-66h-162v-162h-66v162h-162v66h162v163h66v-163h162zM452 173v-66h-390v66h390z" />
    <glyph glyph-name="acute" unicode="&#xb4;" horiz-adv-x="500" 
d="M232 724h116v-5l-141 -113h-67v5z" />
    <glyph glyph-name="paragraph" unicode="&#xb6;" horiz-adv-x="551" 
d="M52 491q0 79 13 118t38 63q28 28 108 28h245v-700h-79v278h-166q-75 0 -103 28q-27 25 -41.5 64.5t-14.5 120.5z" />
    <glyph glyph-name="periodcentered" unicode="&#xb7;" horiz-adv-x="241" 
d="M168 266h-95v103h95v-103z" />
    <glyph glyph-name="cedilla" unicode="&#xb8;" horiz-adv-x="500" 
d="M213 -45h54q47 0 62 -15q19 -19 19 -64t-19 -64q-16 -16 -64 -16h-69l-44 32v14h105q21 0 28 7q8 7 8 27q0 21 -8 28q-7 7 -28 7h-44v44z" />
    <glyph glyph-name="ordmasculine" unicode="&#xba;" horiz-adv-x="506" 
d="M302 315h-95q-59 0 -83 24q-20 20 -28 56t-8 113q0 76 8 112t28 56q25 24 83 24h95q58 0 83 -24q20 -20 28 -56t8 -112q0 -77 -8 -113t-28 -56q-24 -24 -83 -24zM217 369h75q36 0 47 11q19 21 19 128q0 105 -19 126q-12 12 -47 12h-75q-35 0 -47 -12q-19 -21 -19 -126
q0 -107 19 -128q11 -11 47 -11zM422 227v-50h-335v50h335z" />
    <glyph glyph-name="guillemotright" unicode="&#xbb;" horiz-adv-x="574" 
d="M61 84l172 184l-171 184h86l154 -160v-49l-154 -159h-87zM273 84l172 184l-171 184h86l154 -160v-49l-154 -159h-87z" />
    <glyph glyph-name="questiondown" unicode="&#xbf;" horiz-adv-x="542" 
d="M257 700h90v-101h-90v101zM416 210h77q0 -87 -7 -123.5t-28 -57.5q-29 -29 -103 -29h-159q-73 0 -104 31q-37 37 -37 140q0 61 7.5 88.5t30.5 50.5q16 17 104 56q39 18 54 33q19 19 21 96h60v-29q0 -52 -5.5 -77t-21.5 -41q-20 -20 -81 -47q-57 -24 -71 -38
q-12 -12 -16 -29.5t-4 -59.5q0 -70 19 -91q16 -14 55 -14h137q40 0 54 14q17 15 18 127z" />
    <glyph glyph-name="Agrave" unicode="&#xc0;" horiz-adv-x="649" 
d="M162 879v5h116l92 -113v-5h-67zM175 214l-69 -214h-79l228 677q5 16 12 21t26 5h63q18 0 25.5 -5t12.5 -21l228 -677h-85l-69 214h-293zM446 281l-114 352h-21l-114 -352h249z" />
    <glyph glyph-name="Aacute" unicode="&#xc1;" horiz-adv-x="649" 
d="M367 884h116v-5l-141 -113h-67v5zM175 214l-69 -214h-79l228 677q5 16 12 21t26 5h63q18 0 25.5 -5t12.5 -21l228 -677h-85l-69 214h-293zM446 281l-114 352h-21l-114 -352h249z" />
    <glyph glyph-name="Acircumflex" unicode="&#xc2;" horiz-adv-x="649" 
d="M222 768h-58v5l116 119h84l116 -119v-5h-59l-100 72zM175 214l-69 -214h-79l228 677q5 16 12 21t26 5h63q18 0 25.5 -5t12.5 -21l228 -677h-85l-69 214h-293zM446 281l-114 352h-21l-114 -352h249z" />
    <glyph glyph-name="Atilde" unicode="&#xc3;" horiz-adv-x="649" 
d="M176 775v66q0 29 10 40q9 11 31 11h12q20 0 61 -15l118 -46l21 60h39v-66q0 -29 -10 -40q-9 -11 -31 -11h-12q-20 0 -61 15l-118 46l-21 -60h-39zM175 214l-69 -214h-79l228 677q5 16 12 21t26 5h63q18 0 25.5 -5t12.5 -21l228 -677h-85l-69 214h-293zM446 281l-114 352
h-21l-114 -352h249z" />
    <glyph glyph-name="Adieresis" unicode="&#xc4;" horiz-adv-x="649" 
d="M271 879v-95h-83v95h83zM456 879v-95h-83v95h83zM175 214l-69 -214h-79l228 677q5 16 12 21t26 5h63q18 0 25.5 -5t12.5 -21l228 -677h-85l-69 214h-293zM446 281l-114 352h-21l-114 -352h249z" />
    <glyph glyph-name="Aring" unicode="&#xc5;" horiz-adv-x="645" 
d="M173 214l-69 -214h-79l224 664q-22 4 -35 19q-24 24 -24 77t24 78q19 20 66 20h84q47 0 66 -20q24 -25 24 -78t-24 -77q-12 -14 -34 -18l224 -665h-85l-69 214h-293zM358 816h-72q-24 0 -33 -9q-11 -11 -11 -47q0 -34 11 -47q8 -8 33 -8h72q25 0 33 8q11 13 11 47
q0 36 -11 47q-9 9 -33 9zM444 281l-115 354h-19l-115 -354h249z" />
    <glyph glyph-name="AE" unicode="&#xc6;" horiz-adv-x="977" 
d="M222 233l-131 -233h-81l383 673q9 16 17.5 21.5t26.5 5.5h481v-68h-382v-235h327v-67h-327v-262h379v-68h-457v233h-236zM458 299v337h-8l-191 -337h199z" />
    <glyph glyph-name="Ccedilla" unicode="&#xc7;" horiz-adv-x="671" 
d="M536 229h78q-4 -95 -15.5 -135.5t-37.5 -65.5q-31 -28 -110 -28h-207q-79 0 -110 28q-30 29 -44 93t-14 229t14 229t44 93q31 28 110 28h207q79 0 110 -28q26 -25 38 -65t14 -125h-78q-3 110 -28 135q-17 15 -64 15h-191q-47 0 -64 -15q-32 -32 -32 -267t32 -267
q17 -15 64 -15h191q46 -1 64 15q25 25 29 146zM301 -45h54q47 0 62 -15q19 -19 19 -64t-19 -64q-16 -16 -64 -16h-69l-44 32v14h105q21 0 28 7q8 7 8 27q0 21 -8 28q-7 7 -28 7h-44v44z" />
    <glyph glyph-name="Egrave" unicode="&#xc8;" horiz-adv-x="612" 
d="M166 879v5h116l92 -113v-5h-67zM95 0v700h465v-68h-386v-235h331v-67h-331v-262h383v-68h-462z" />
    <glyph glyph-name="Eacute" unicode="&#xc9;" horiz-adv-x="612" 
d="M371 884h116v-5l-141 -113h-67v5zM95 0v700h465v-68h-386v-235h331v-67h-331v-262h383v-68h-462z" />
    <glyph glyph-name="Ecircumflex" unicode="&#xca;" horiz-adv-x="612" 
d="M226 768h-58v5l116 119h84l116 -119v-5h-59l-100 72zM95 0v700h465v-68h-386v-235h331v-67h-331v-262h383v-68h-462z" />
    <glyph glyph-name="Edieresis" unicode="&#xcb;" horiz-adv-x="612" 
d="M275 879v-95h-83v95h83zM460 879v-95h-83v95h83zM95 0v700h465v-68h-386v-235h331v-67h-331v-262h383v-68h-462z" />
    <glyph glyph-name="Igrave" unicode="&#xcc;" horiz-adv-x="276" 
d="M-22 879v5h116l92 -113v-5h-67zM99 700h79v-700h-79v700z" />
    <glyph glyph-name="Iacute" unicode="&#xcd;" horiz-adv-x="276" 
d="M183 884h116v-5l-141 -113h-67v5zM99 700h79v-700h-79v700z" />
    <glyph glyph-name="Icircumflex" unicode="&#xce;" horiz-adv-x="276" 
d="M38 768h-58v5l116 119h84l116 -119v-5h-59l-100 72zM99 700h79v-700h-79v700z" />
    <glyph glyph-name="Idieresis" unicode="&#xcf;" horiz-adv-x="276" 
d="M87 879v-95h-83v95h83zM272 879v-95h-83v95h83zM99 700h79v-700h-79v700z" />
    <glyph glyph-name="Eth" unicode="&#xd0;" horiz-adv-x="704" 
d="M101 700h316q101 0 148 -43q34 -33 51.5 -103t17.5 -204t-17.5 -204t-51.5 -103q-47 -43 -148 -43h-316v321h-98v66h98v313zM554 349q0 213 -48 258q-16 15 -34.5 20t-54.5 5h-237v-245h162v-66h-162v-253h237q64 0 89 25q48 45 48 256z" />
    <glyph glyph-name="Ntilde" unicode="&#xd1;" horiz-adv-x="726" 
d="M218 775v66q0 29 10 40q9 11 31 11h12q20 0 61 -15l118 -46l21 60h39v-66q0 -29 -10 -40q-9 -11 -31 -11h-12q-20 0 -61 15l-118 46l-21 -60h-39zM631 0h-81q-19 0 -28 5.5t-17 21.5l-321 571h-12v-598h-77v700h87q18 0 27 -5.5t17 -22.5l315 -556h13v584h77v-700z" />
    <glyph glyph-name="Ograve" unicode="&#xd2;" horiz-adv-x="704" 
d="M191 879v5h116l92 -113v-5h-67zM244 700h216q81 0 110 -28q31 -28 44.5 -92t13.5 -230t-13.5 -230t-44.5 -92q-29 -28 -110 -28h-216q-79 0 -110 28q-30 29 -44 93t-14 229t14 229t44 93q31 28 110 28zM156 350q0 -235 32 -267q17 -15 64 -15h200q46 -1 64 15q10 9 16 28
t11 78.5t5 160.5t-5 160.5t-11 78.5t-16 28q-17 15 -64 15h-200q-47 0 -64 -15q-32 -32 -32 -267z" />
    <glyph glyph-name="Oacute" unicode="&#xd3;" horiz-adv-x="704" 
d="M396 884h116v-5l-141 -113h-67v5zM244 700h216q81 0 110 -28q31 -28 44.5 -92t13.5 -230t-13.5 -230t-44.5 -92q-29 -28 -110 -28h-216q-79 0 -110 28q-30 29 -44 93t-14 229t14 229t44 93q31 28 110 28zM156 350q0 -235 32 -267q17 -15 64 -15h200q46 -1 64 15
q10 9 16 28t11 78.5t5 160.5t-5 160.5t-11 78.5t-16 28q-17 15 -64 15h-200q-47 0 -64 -15q-32 -32 -32 -267z" />
    <glyph glyph-name="Ocircumflex" unicode="&#xd4;" horiz-adv-x="704" 
d="M252 768h-58v5l116 119h84l116 -119v-5h-59l-100 72zM244 700h216q81 0 110 -28q31 -28 44.5 -92t13.5 -230t-13.5 -230t-44.5 -92q-29 -28 -110 -28h-216q-79 0 -110 28q-30 29 -44 93t-14 229t14 229t44 93q31 28 110 28zM156 350q0 -235 32 -267q17 -15 64 -15h200
q46 -1 64 15q10 9 16 28t11 78.5t5 160.5t-5 160.5t-11 78.5t-16 28q-17 15 -64 15h-200q-47 0 -64 -15q-32 -32 -32 -267z" />
    <glyph glyph-name="Otilde" unicode="&#xd5;" horiz-adv-x="704" 
d="M206 775v66q0 29 10 40q9 11 31 11h12q20 0 61 -15l118 -46l21 60h39v-66q0 -29 -10 -40q-9 -11 -31 -11h-12q-20 0 -61 15l-118 46l-21 -60h-39zM244 700h216q81 0 110 -28q31 -28 44.5 -92t13.5 -230t-13.5 -230t-44.5 -92q-29 -28 -110 -28h-216q-79 0 -110 28
q-30 29 -44 93t-14 229t14 229t44 93q31 28 110 28zM156 350q0 -235 32 -267q17 -15 64 -15h200q46 -1 64 15q10 9 16 28t11 78.5t5 160.5t-5 160.5t-11 78.5t-16 28q-17 15 -64 15h-200q-47 0 -64 -15q-32 -32 -32 -267z" />
    <glyph glyph-name="Odieresis" unicode="&#xd6;" horiz-adv-x="704" 
d="M301 879v-95h-83v95h83zM486 879v-95h-83v95h83zM244 700h216q81 0 110 -28q31 -28 44.5 -92t13.5 -230t-13.5 -230t-44.5 -92q-29 -28 -110 -28h-216q-79 0 -110 28q-30 29 -44 93t-14 229t14 229t44 93q31 28 110 28zM156 350q0 -235 32 -267q17 -15 64 -15h200
q46 -1 64 15q10 9 16 28t11 78.5t5 160.5t-5 160.5t-11 78.5t-16 28q-17 15 -64 15h-200q-47 0 -64 -15q-32 -32 -32 -267z" />
    <glyph glyph-name="multiply" unicode="&#xd7;" horiz-adv-x="514" 
d="M383 536l46 -47l-126 -126l126 -126l-46 -47l-126 127l-126 -127l-47 47l126 126l-126 126l47 47l126 -127z" />
    <glyph glyph-name="Oslash" unicode="&#xd8;" horiz-adv-x="704" 
d="M481 700l26 53h73l-32 -66q11 -5 22 -15q31 -28 44.5 -92t13.5 -230t-13.5 -230t-44.5 -92q-29 -28 -110 -28h-238l-25 -53h-73l31 66q-12 6 -21 15q-30 29 -44 93t-14 229t14 229t44 93q31 28 110 28h237zM156 350q0 -235 32 -267l2 -3l260 552h-198q-47 0 -64 -15
q-32 -32 -32 -267zM254 68h198q46 -1 64 15q10 9 16 28t11 78.5t5 160.5t-5 160.5t-11 78.5t-16 28l-3 3z" />
    <glyph glyph-name="Ugrave" unicode="&#xd9;" horiz-adv-x="723" 
d="M200 879v5h116l92 -113v-5h-67zM627 700v-415q0 -120 -11 -170t-39 -79q-37 -36 -145 -36h-145q-106 0 -142 36q-28 28 -39 77.5t-11 171.5v415h79v-429q0 -95 7 -131t23 -52q19 -19 98 -19h121q78 0 97 19q15 16 22 51.5t7 131.5v429h78z" />
    <glyph glyph-name="Uacute" unicode="&#xda;" horiz-adv-x="723" 
d="M405 884h116v-5l-141 -113h-67v5zM627 700v-415q0 -120 -11 -170t-39 -79q-37 -36 -145 -36h-145q-106 0 -142 36q-28 28 -39 77.5t-11 171.5v415h79v-429q0 -95 7 -131t23 -52q19 -19 98 -19h121q78 0 97 19q15 16 22 51.5t7 131.5v429h78z" />
    <glyph glyph-name="Ucircumflex" unicode="&#xdb;" horiz-adv-x="723" 
d="M260 768h-58v5l116 119h84l116 -119v-5h-59l-100 72zM627 700v-415q0 -120 -11 -170t-39 -79q-37 -36 -145 -36h-145q-106 0 -142 36q-28 28 -39 77.5t-11 171.5v415h79v-429q0 -95 7 -131t23 -52q19 -19 98 -19h121q78 0 97 19q15 16 22 51.5t7 131.5v429h78z" />
    <glyph glyph-name="Udieresis" unicode="&#xdc;" horiz-adv-x="723" 
d="M309 879v-95h-83v95h83zM494 879v-95h-83v95h83zM627 700v-415q0 -120 -11 -170t-39 -79q-37 -36 -145 -36h-145q-106 0 -142 36q-28 28 -39 77.5t-11 171.5v415h79v-429q0 -95 7 -131t23 -52q19 -19 98 -19h121q78 0 97 19q15 16 22 51.5t7 131.5v429h78z" />
    <glyph glyph-name="Yacute" unicode="&#xdd;" horiz-adv-x="589" 
d="M340 884h116v-5l-141 -113h-67v5zM335 0h-79v277l-244 423h86l195 -342h6l193 342h85l-242 -422v-278z" />
    <glyph glyph-name="Thorn" unicode="&#xde;" horiz-adv-x="633" 
d="M174 561h254q79 0 107 -28q25 -23 38 -63t13 -122q0 -79 -13 -118.5t-38 -62.5q-28 -28 -107 -28h-254v-139h-79v700h79v-139zM174 207h237q51 0 67 15q28 26 28 128t-28 128q-16 15 -67 15h-237v-286z" />
    <glyph glyph-name="germandbls" unicode="&#xdf;" horiz-adv-x="625" 
d="M39 471v64h91v18q0 91 37 128q31 31 101 31h122q75 0 104 -28q39 -39 39 -147q0 -69 -19.5 -101t-64.5 -45q63 -8 87 -46.5t24 -132.5q0 -82 -10 -120t-32 -60q-32 -32 -114 -32h-117v63h101q56 0 73 17q23 23 23 134q0 102 -22 124q-18 18 -73 18h-82v66h64q48 0 65 17
q22 22 22 98q0 74 -22 96q-16 16 -63 16h-89q-43 0 -59 -16q-21 -21 -21 -80v-553h-74v471h-91z" />
    <glyph glyph-name="agrave" unicode="&#xe0;" horiz-adv-x="572" 
d="M133 719v5h116l92 -113v-5h-67zM155 376h-72q1 96 34 130q29 29 99 29h144q74 0 101 -28q17 -17 22.5 -42.5t5.5 -80.5v-384h-73v68q-53 -42 -79.5 -55.5t-66.5 -13.5h-78q-71 0 -100 30q-32 30 -32 116q0 89 33 122q19 19 50.5 27.5t103.5 8.5q91 0 169 -13v89
q0 66 -15 81q-13 13 -56 13h-110q-47 0 -62 -15q-17 -18 -18 -82zM207 62h75q35 0 62.5 10t71.5 38v136h-174q-45 0 -63 -4t-28 -14q-18 -18 -18 -73q0 -63 16 -78t58 -15z" />
    <glyph glyph-name="aacute" unicode="&#xe1;" horiz-adv-x="572" 
d="M338 724h116v-5l-141 -113h-67v5zM155 376h-72q1 96 34 130q29 29 99 29h144q74 0 101 -28q17 -17 22.5 -42.5t5.5 -80.5v-384h-73v68q-53 -42 -79.5 -55.5t-66.5 -13.5h-78q-71 0 -100 30q-32 30 -32 116q0 89 33 122q19 19 50.5 27.5t103.5 8.5q91 0 169 -13v89
q0 66 -15 81q-13 13 -56 13h-110q-47 0 -62 -15q-17 -18 -18 -82zM207 62h75q35 0 62.5 10t71.5 38v136h-174q-45 0 -63 -4t-28 -14q-18 -18 -18 -73q0 -63 16 -78t58 -15z" />
    <glyph glyph-name="acircumflex" unicode="&#xe2;" horiz-adv-x="572" 
d="M194 608h-58v5l116 119h84l116 -119v-5h-59l-100 72zM155 376h-72q1 96 34 130q29 29 99 29h144q74 0 101 -28q17 -17 22.5 -42.5t5.5 -80.5v-384h-73v68q-53 -42 -79.5 -55.5t-66.5 -13.5h-78q-71 0 -100 30q-32 30 -32 116q0 89 33 122q19 19 50.5 27.5t103.5 8.5
q91 0 169 -13v89q0 66 -15 81q-13 13 -56 13h-110q-47 0 -62 -15q-17 -18 -18 -82zM207 62h75q35 0 62.5 10t71.5 38v136h-174q-45 0 -63 -4t-28 -14q-18 -18 -18 -73q0 -63 16 -78t58 -15z" />
    <glyph glyph-name="atilde" unicode="&#xe3;" horiz-adv-x="572" 
d="M148 615v66q0 29 10 40q9 11 31 11h12q20 0 61 -15l118 -46l21 60h39v-66q0 -29 -10 -40q-9 -11 -31 -11h-12q-20 0 -61 15l-118 46l-21 -60h-39zM155 376h-72q1 96 34 130q29 29 99 29h144q74 0 101 -28q17 -17 22.5 -42.5t5.5 -80.5v-384h-73v68q-53 -42 -79.5 -55.5
t-66.5 -13.5h-78q-71 0 -100 30q-32 30 -32 116q0 89 33 122q19 19 50.5 27.5t103.5 8.5q91 0 169 -13v89q0 66 -15 81q-13 13 -56 13h-110q-47 0 -62 -15q-17 -18 -18 -82zM207 62h75q35 0 62.5 10t71.5 38v136h-174q-45 0 -63 -4t-28 -14q-18 -18 -18 -73q0 -63 16 -78
t58 -15z" />
    <glyph glyph-name="adieresis" unicode="&#xe4;" horiz-adv-x="572" 
d="M243 719v-95h-83v95h83zM428 719v-95h-83v95h83zM155 376h-72q1 96 34 130q29 29 99 29h144q74 0 101 -28q17 -17 22.5 -42.5t5.5 -80.5v-384h-73v68q-53 -42 -79.5 -55.5t-66.5 -13.5h-78q-71 0 -100 30q-32 30 -32 116q0 89 33 122q19 19 50.5 27.5t103.5 8.5
q91 0 169 -13v89q0 66 -15 81q-13 13 -56 13h-110q-47 0 -62 -15q-17 -18 -18 -82zM207 62h75q35 0 62.5 10t71.5 38v136h-174q-45 0 -63 -4t-28 -14q-18 -18 -18 -73q0 -63 16 -78t58 -15z" />
    <glyph glyph-name="aring" unicode="&#xe5;" horiz-adv-x="572" 
d="M336 609h-84q-46 0 -66 21q-24 24 -24 77t24 78q19 20 66 20h84q47 0 66 -20q24 -25 24 -78t-24 -77q-20 -21 -66 -21zM330 763h-72q-24 0 -33 -9q-11 -11 -11 -47q0 -34 11 -47q8 -8 33 -8h72q25 0 33 8q11 13 11 47q0 36 -11 47q-9 9 -33 9zM155 376h-72q1 96 34 130
q29 29 99 29h144q74 0 101 -28q17 -17 22.5 -42.5t5.5 -80.5v-384h-73v68q-53 -42 -79.5 -55.5t-66.5 -13.5h-78q-71 0 -100 30q-32 30 -32 116q0 89 33 122q19 19 50.5 27.5t103.5 8.5q91 0 169 -13v89q0 66 -15 81q-13 13 -56 13h-110q-47 0 -62 -15q-17 -18 -18 -82z
M207 62h75q35 0 62.5 10t71.5 38v136h-174q-45 0 -63 -4t-28 -14q-18 -18 -18 -73q0 -63 16 -78t58 -15z" />
    <glyph glyph-name="ae" unicode="&#xe6;" horiz-adv-x="924" 
d="M249 303q97 0 169 -12v88q0 66 -15 81q-13 13 -56 13h-108q-48 0 -63 -15q-15 -17 -18 -82h-74q1 58 9 85t25 45q29 29 98 29h134q72 0 100 -28q8 -10 11 -15l12 13q30 30 108 30h124q79 0 108 -29q26 -27 36 -73.5t10 -157.5v-19q0 -12 -12 -12h-357q1 -86 6.5 -119
t17.5 -45q15 -15 64 -15h133q43 0 58 15q17 17 18 84h72q-1 -60 -9 -88t-28 -48q-28 -28 -97 -28h-153q-78 0 -108 30q-22 20 -31 51q-62 -52 -90 -67t-71 -15h-78q-71 0 -100 30q-32 30 -32 116q0 89 33 122q19 19 50.5 27.5t103.5 8.5zM513 454q-12 -12 -17 -41.5
t-6 -109.5h296q-1 130 -25 152q-16 16 -64 16h-119q-48 0 -65 -17zM209 62h75q37 0 65.5 11t75.5 42q-7 43 -7 131h-174q-45 0 -63 -4t-28 -14q-18 -18 -18 -73q0 -63 16 -78t58 -15z" />
    <glyph glyph-name="ccedilla" unicode="&#xe7;" horiz-adv-x="552" 
d="M425 181h72q-2 -71 -10.5 -102.5t-28.5 -51.5q-27 -27 -95 -27h-141q-79 0 -109 30q-26 26 -36 73.5t-10 164.5q0 116 10 163.5t36 73.5q30 30 109 30h140q69 0 96 -27q19 -19 27.5 -51t9.5 -97h-72q-3 78 -20 95q-14 14 -56 14h-117q-50 0 -65 -15q-13 -13 -18.5 -49
t-5.5 -137q0 -102 5.5 -138t18.5 -49q16 -15 65 -15h117q43 0 58 14q18 18 20 101zM233 -45h54q47 0 62 -15q19 -19 19 -64t-19 -64q-16 -16 -64 -16h-69l-44 32v14h105q21 0 28 7q8 7 8 27q0 21 -8 28q-7 7 -28 7h-44v44z" />
    <glyph glyph-name="egrave" unicode="&#xe8;" horiz-adv-x="575" 
d="M131 719v5h116l92 -113v-5h-67zM498 244h-357q1 -86 6.5 -119t17.5 -45q15 -15 64 -15h133q43 0 58 15q17 17 18 84h72q-1 -60 -9 -88t-28 -48q-28 -28 -97 -28h-154q-79 0 -109 30q-26 26 -36 73.5t-10 164.5q0 116 10 163.5t36 73.5q30 30 109 30h134q79 0 108 -29
q26 -27 36 -73.5t10 -159.5v-17q0 -12 -12 -12zM164 454q-12 -12 -17 -41.5t-6 -109.5h296q-1 78 -6.5 109t-18.5 43q-16 16 -64 16h-119q-48 0 -65 -17z" />
    <glyph glyph-name="eacute" unicode="&#xe9;" horiz-adv-x="575" 
d="M335 724h116v-5l-141 -113h-67v5zM498 244h-357q1 -86 6.5 -119t17.5 -45q15 -15 64 -15h133q43 0 58 15q17 17 18 84h72q-1 -60 -9 -88t-28 -48q-28 -28 -97 -28h-154q-79 0 -109 30q-26 26 -36 73.5t-10 164.5q0 116 10 163.5t36 73.5q30 30 109 30h134q79 0 108 -29
q26 -27 36 -73.5t10 -159.5v-17q0 -12 -12 -12zM164 454q-12 -12 -17 -41.5t-6 -109.5h296q-1 78 -6.5 109t-18.5 43q-16 16 -64 16h-119q-48 0 -65 -17z" />
    <glyph glyph-name="ecircumflex" unicode="&#xea;" horiz-adv-x="575" 
d="M191 608h-58v5l116 119h84l116 -119v-5h-59l-100 72zM498 244h-357q1 -86 6.5 -119t17.5 -45q15 -15 64 -15h133q43 0 58 15q17 17 18 84h72q-1 -60 -9 -88t-28 -48q-28 -28 -97 -28h-154q-79 0 -109 30q-26 26 -36 73.5t-10 164.5q0 116 10 163.5t36 73.5q30 30 109 30
h134q79 0 108 -29q26 -27 36 -73.5t10 -159.5v-17q0 -12 -12 -12zM164 454q-12 -12 -17 -41.5t-6 -109.5h296q-1 78 -6.5 109t-18.5 43q-16 16 -64 16h-119q-48 0 -65 -17z" />
    <glyph glyph-name="edieresis" unicode="&#xeb;" horiz-adv-x="575" 
d="M240 719v-95h-83v95h83zM425 719v-95h-83v95h83zM498 244h-357q1 -86 6.5 -119t17.5 -45q15 -15 64 -15h133q43 0 58 15q17 17 18 84h72q-1 -60 -9 -88t-28 -48q-28 -28 -97 -28h-154q-79 0 -109 30q-26 26 -36 73.5t-10 164.5q0 116 10 163.5t36 73.5q30 30 109 30h134
q79 0 108 -29q26 -27 36 -73.5t10 -159.5v-17q0 -12 -12 -12zM164 454q-12 -12 -17 -41.5t-6 -109.5h296q-1 78 -6.5 109t-18.5 43q-16 16 -64 16h-119q-48 0 -65 -17z" />
    <glyph glyph-name="igrave" unicode="&#xec;" horiz-adv-x="248" 
d="M-36 719v5h116l92 -113v-5h-67zM87 0v535h74v-535h-74z" />
    <glyph glyph-name="iacute" unicode="&#xed;" horiz-adv-x="248" 
d="M169 724h116v-5l-141 -113h-67v5zM87 0v535h74v-535h-74z" />
    <glyph glyph-name="icircumflex" unicode="&#xee;" horiz-adv-x="248" 
d="M24 608h-58v5l116 119h84l116 -119v-5h-59l-100 72zM87 0v535h74v-535h-74z" />
    <glyph glyph-name="idieresis" unicode="&#xef;" horiz-adv-x="248" 
d="M73 719v-95h-83v95h83zM258 719v-95h-83v95h83zM87 0v535h74v-535h-74z" />
    <glyph glyph-name="eth" unicode="&#xf0;" horiz-adv-x="593" 
d="M274 720h62l54 -56l134 46v-57l-94 -32q57 -63 71 -104q15 -41 15 -243q0 -122 -8.5 -169t-36.5 -75q-30 -30 -109 -30h-140q-79 0 -108 30q-27 26 -36.5 69.5t-9.5 143.5q0 99 9.5 142.5t36.5 69.5q29 30 108 30h69q40 0 68 -13.5t82 -57.5q-2 65 -12 95q-11 29 -59 91
l-143 -49v58l108 36zM442 274v96q-44 28 -72 39t-61 11h-79q-49 0 -64 -15q-13 -13 -18.5 -45.5t-5.5 -116.5t5.5 -116.5t18.5 -45.5q16 -15 64 -15h124q48 0 64 15q14 14 19 51t5 142z" />
    <glyph glyph-name="ntilde" unicode="&#xf1;" 
d="M156 615v66q0 29 10 40q9 11 31 11h12q20 0 61 -15l118 -46l21 60h39v-66q0 -29 -10 -40q-9 -11 -31 -11h-12q-20 0 -61 15l-118 46l-21 -60h-39zM86 535h74v-71q55 44 83 58t69 14h78q64 0 93 -28q28 -29 28 -107v-401h-74v396q0 43 -16 59q-15 15 -60 15h-70
q-33 0 -60.5 -10.5t-70.5 -37.5v-422h-74v535z" />
    <glyph glyph-name="ograve" unicode="&#xf2;" horiz-adv-x="584" 
d="M131 719v5h116l92 -113v-5h-67zM362 0h-140q-79 0 -109 30q-26 26 -36 73.5t-10 164.5q0 116 10 163.5t36 73.5q30 30 109 30h140q79 0 108 -30q27 -26 37 -73t10 -164t-10 -164.5t-37 -73.5q-29 -30 -108 -30zM141 268q0 -102 5.5 -138t18.5 -49q16 -15 65 -15h124
q49 0 64 15q13 13 19 49.5t6 137.5q0 100 -6 136.5t-19 49.5q-14 15 -64 15h-124q-50 0 -65 -15q-13 -13 -18.5 -49t-5.5 -137z" />
    <glyph glyph-name="oacute" unicode="&#xf3;" horiz-adv-x="584" 
d="M335 724h116v-5l-141 -113h-67v5zM362 0h-140q-79 0 -109 30q-26 26 -36 73.5t-10 164.5q0 116 10 163.5t36 73.5q30 30 109 30h140q79 0 108 -30q27 -26 37 -73t10 -164t-10 -164.5t-37 -73.5q-29 -30 -108 -30zM141 268q0 -102 5.5 -138t18.5 -49q16 -15 65 -15h124
q49 0 64 15q13 13 19 49.5t6 137.5q0 100 -6 136.5t-19 49.5q-14 15 -64 15h-124q-50 0 -65 -15q-13 -13 -18.5 -49t-5.5 -137z" />
    <glyph glyph-name="ocircumflex" unicode="&#xf4;" horiz-adv-x="584" 
d="M191 608h-58v5l116 119h84l116 -119v-5h-59l-100 72zM362 0h-140q-79 0 -109 30q-26 26 -36 73.5t-10 164.5q0 116 10 163.5t36 73.5q30 30 109 30h140q79 0 108 -30q27 -26 37 -73t10 -164t-10 -164.5t-37 -73.5q-29 -30 -108 -30zM141 268q0 -102 5.5 -138t18.5 -49
q16 -15 65 -15h124q49 0 64 15q13 13 19 49.5t6 137.5q0 100 -6 136.5t-19 49.5q-14 15 -64 15h-124q-50 0 -65 -15q-13 -13 -18.5 -49t-5.5 -137z" />
    <glyph glyph-name="otilde" unicode="&#xf5;" horiz-adv-x="584" 
d="M145 615v66q0 29 10 40q9 11 31 11h12q20 0 61 -15l118 -46l21 60h39v-66q0 -29 -10 -40q-9 -11 -31 -11h-12q-20 0 -61 15l-118 46l-21 -60h-39zM362 0h-140q-79 0 -109 30q-26 26 -36 73.5t-10 164.5q0 116 10 163.5t36 73.5q30 30 109 30h140q79 0 108 -30
q27 -26 37 -73t10 -164t-10 -164.5t-37 -73.5q-29 -30 -108 -30zM141 268q0 -102 5.5 -138t18.5 -49q16 -15 65 -15h124q49 0 64 15q13 13 19 49.5t6 137.5q0 100 -6 136.5t-19 49.5q-14 15 -64 15h-124q-50 0 -65 -15q-13 -13 -18.5 -49t-5.5 -137z" />
    <glyph glyph-name="odieresis" unicode="&#xf6;" horiz-adv-x="584" 
d="M240 719v-95h-83v95h83zM425 719v-95h-83v95h83zM362 0h-140q-79 0 -109 30q-26 26 -36 73.5t-10 164.5q0 116 10 163.5t36 73.5q30 30 109 30h140q79 0 108 -30q27 -26 37 -73t10 -164t-10 -164.5t-37 -73.5q-29 -30 -108 -30zM141 268q0 -102 5.5 -138t18.5 -49
q16 -15 65 -15h124q49 0 64 15q13 13 19 49.5t6 137.5q0 100 -6 136.5t-19 49.5q-14 15 -64 15h-124q-50 0 -65 -15q-13 -13 -18.5 -49t-5.5 -137z" />
    <glyph glyph-name="divide" unicode="&#xf7;" horiz-adv-x="514" 
d="M301 567v-91h-89v91h89zM452 396v-66h-390v66h390zM301 250v-91h-89v91h89z" />
    <glyph glyph-name="oslash" unicode="&#xf8;" horiz-adv-x="587" 
d="M363 0h-140q-27 0 -39 1l-27 -51h-71l39 70q-6 4 -10 10q-27 26 -37 73.5t-10 164.5t10 164t37 73q29 30 108 30h140q14 0 36 -2l30 57h71l-41 -74l13 -11q26 -26 36 -73.5t10 -163.5q0 -117 -10 -164.5t-36 -73.5q-30 -30 -109 -30zM142 268q0 -157 22 -184l201 385
h-134q-50 0 -64 -15q-13 -13 -19 -49.5t-6 -136.5zM444 268q0 99 -5.5 135.5t-17.5 49.5l-203 -387h137q49 0 65 15q13 13 18.5 49t5.5 138z" />
    <glyph glyph-name="ugrave" unicode="&#xf9;" 
d="M138 719v5h116l92 -113v-5h-67zM510 0h-74v72q-55 -45 -83.5 -59t-69.5 -14h-78q-64 0 -92 29q-29 28 -29 106v401h74v-396q0 -43 16 -58q16 -16 61 -16h70q33 0 60.5 10t70.5 38v422h74v-535z" />
    <glyph glyph-name="uacute" unicode="&#xfa;" 
d="M342 724h116v-5l-141 -113h-67v5zM510 0h-74v72q-55 -45 -83.5 -59t-69.5 -14h-78q-64 0 -92 29q-29 28 -29 106v401h74v-396q0 -43 16 -58q16 -16 61 -16h70q33 0 60.5 10t70.5 38v422h74v-535z" />
    <glyph glyph-name="ucircumflex" unicode="&#xfb;" 
d="M198 608h-58v5l116 119h84l116 -119v-5h-59l-100 72zM510 0h-74v72q-55 -45 -83.5 -59t-69.5 -14h-78q-64 0 -92 29q-29 28 -29 106v401h74v-396q0 -43 16 -58q16 -16 61 -16h70q33 0 60.5 10t70.5 38v422h74v-535z" />
    <glyph glyph-name="udieresis" unicode="&#xfc;" 
d="M247 719v-95h-83v95h83zM432 719v-95h-83v95h83zM510 0h-74v72q-55 -45 -83.5 -59t-69.5 -14h-78q-64 0 -92 29q-29 28 -29 106v401h74v-396q0 -43 16 -58q16 -16 61 -16h70q33 0 60.5 10t70.5 38v422h74v-535z" />
    <glyph glyph-name="yacute" unicode="&#xfd;" horiz-adv-x="532" 
d="M316 724h116v-5l-141 -113h-67v5zM270 101h7l147 434h79l-225 -627q-12 -33 -31.5 -46.5t-55.5 -13.5q-33 0 -103 7v60h97q21 0 30 23l22 60l-212 537h84z" />
    <glyph glyph-name="thorn" unicode="&#xfe;" horiz-adv-x="597" 
d="M160 720v-256q55 45 83 58.5t69 13.5h62q81 0 114 -33q24 -25 33 -71.5t9 -163.5q0 -118 -9 -164.5t-33 -71.5q-33 -33 -114 -33h-62q-41 0 -70 14t-82 58v-221h-74v870h74zM359 470h-68q-33 0 -61 -10.5t-70 -37.5v-308q43 -27 71.5 -38t61.5 -11h66q54 0 73 19
q14 14 19 50t5 134t-5 133.5t-19 49.5q-19 19 -73 19z" />
    <glyph glyph-name="ydieresis" unicode="&#xff;" horiz-adv-x="532" 
d="M221 719v-95h-83v95h83zM406 719v-95h-83v95h83zM270 101h7l147 434h79l-225 -627q-12 -33 -31.5 -46.5t-55.5 -13.5q-33 0 -103 7v60h97q21 0 30 23l22 60l-212 537h84z" />
    <glyph glyph-name="Amacron" unicode="&#x100;" horiz-adv-x="649" 
d="M468 837v-61h-292v61h292zM175 214l-69 -214h-79l228 677q5 16 12 21t26 5h63q18 0 25.5 -5t12.5 -21l228 -677h-85l-69 214h-293zM446 281l-114 352h-21l-114 -352h249z" />
    <glyph glyph-name="amacron" unicode="&#x101;" horiz-adv-x="572" 
d="M440 677v-61h-292v61h292zM155 376h-72q1 96 34 130q29 29 99 29h144q74 0 101 -28q17 -17 22.5 -42.5t5.5 -80.5v-384h-73v68q-53 -42 -79.5 -55.5t-66.5 -13.5h-78q-71 0 -100 30q-32 30 -32 116q0 89 33 122q19 19 50.5 27.5t103.5 8.5q91 0 169 -13v89q0 66 -15 81
q-13 13 -56 13h-110q-47 0 -62 -15q-17 -18 -18 -82zM207 62h75q35 0 62.5 10t71.5 38v136h-174q-45 0 -63 -4t-28 -14q-18 -18 -18 -73q0 -63 16 -78t58 -15z" />
    <glyph glyph-name="Abreve" unicode="&#x102;" horiz-adv-x="649" 
d="M322 822q85 0 100 70h52q-4 -60 -43 -93.5t-109 -33.5t-109 33.5t-43 93.5h52q15 -70 100 -70zM175 214l-69 -214h-79l228 677q5 16 12 21t26 5h63q18 0 25.5 -5t12.5 -21l228 -677h-85l-69 214h-293zM446 281l-114 352h-21l-114 -352h249z" />
    <glyph glyph-name="abreve" unicode="&#x103;" horiz-adv-x="572" 
d="M294 662q85 0 100 70h52q-4 -60 -43 -93.5t-109 -33.5t-109 33.5t-43 93.5h52q15 -70 100 -70zM155 376h-72q1 96 34 130q29 29 99 29h144q74 0 101 -28q17 -17 22.5 -42.5t5.5 -80.5v-384h-73v68q-53 -42 -79.5 -55.5t-66.5 -13.5h-78q-71 0 -100 30q-32 30 -32 116
q0 89 33 122q19 19 50.5 27.5t103.5 8.5q91 0 169 -13v89q0 66 -15 81q-13 13 -56 13h-110q-47 0 -62 -15q-17 -18 -18 -82zM207 62h75q35 0 62.5 10t71.5 38v136h-174q-45 0 -63 -4t-28 -14q-18 -18 -18 -73q0 -63 16 -78t58 -15z" />
    <glyph glyph-name="Aogonek" unicode="&#x104;" horiz-adv-x="645" 
d="M591 -82h55q0 -47 -4.5 -67t-16.5 -31q-15 -14 -51 -14h-58q-37 0 -52 14q-20 19 -20 70q0 40 14 60q17 27 71 68l-63 196h-293l-69 -214h-79l228 677q5 16 12 21t26 5h63q18 0 25.5 -5t12.5 -21l228 -677h-58q-42 -37 -50 -54q-10 -15 -10 -42q0 -33 7 -40q7 -6 21 -6
h32q15 0 21 6q8 7 8 54zM444 281l-114 352h-21l-114 -352h249z" />
    <glyph glyph-name="aogonek" unicode="&#x105;" horiz-adv-x="574" 
d="M157 376h-72q1 96 34 130q29 29 99 29h144q74 0 101 -28q17 -17 22.5 -42.5t5.5 -80.5v-384h-38q-34 -29 -45 -51q-10 -15 -10 -43q0 -35 7 -42q7 -6 21 -6h33q14 0 20 6q8 7 8 54h55q0 -47 -4.5 -67t-16.5 -31q-14 -14 -51 -14h-57q-38 0 -52 14q-21 18 -21 73
q0 37 14 59q14 24 64 62v54q-53 -42 -79.5 -55.5t-66.5 -13.5h-78q-71 0 -100 30q-32 30 -32 116q0 89 33 122q19 19 50.5 27.5t103.5 8.5q91 0 169 -13v89q0 66 -15 81q-13 13 -56 13h-110q-47 0 -62 -15q-17 -18 -18 -82zM209 62h75q35 0 62.5 10t71.5 38v136h-174
q-45 0 -63 -4t-28 -14q-18 -18 -18 -73q0 -63 16 -78t58 -15z" />
    <glyph glyph-name="Cacute" unicode="&#x106;" horiz-adv-x="675" 
d="M391 884h116v-5l-141 -113h-67v5zM536 229h78q-4 -95 -15.5 -135.5t-37.5 -65.5q-31 -28 -110 -28h-207q-79 0 -110 28q-30 29 -44 93t-14 229t14 229t44 93q31 28 110 28h207q79 0 110 -28q26 -25 38 -65t14 -125h-78q-3 110 -28 135q-17 15 -64 15h-191q-47 0 -64 -15
q-32 -32 -32 -267t32 -267q17 -15 64 -15h191q46 -1 64 15q25 25 29 146z" />
    <glyph glyph-name="cacute" unicode="&#x107;" horiz-adv-x="552" 
d="M329 724h116v-5l-141 -113h-67v5zM425 181h72q-2 -71 -10.5 -102.5t-28.5 -51.5q-27 -27 -95 -27h-141q-79 0 -109 30q-26 26 -36 73.5t-10 164.5q0 116 10 163.5t36 73.5q30 30 109 30h140q69 0 96 -27q19 -19 27.5 -51t9.5 -97h-72q-3 78 -20 95q-14 14 -56 14h-117
q-50 0 -65 -15q-13 -13 -18.5 -49t-5.5 -137q0 -102 5.5 -138t18.5 -49q16 -15 65 -15h117q43 0 58 14q18 18 20 101z" />
    <glyph glyph-name="Cdotaccent" unicode="&#x10a;" horiz-adv-x="675" 
d="M391 885v-96h-88v96h88zM536 229h78q-4 -95 -15.5 -135.5t-37.5 -65.5q-31 -28 -110 -28h-207q-79 0 -110 28q-30 29 -44 93t-14 229t14 229t44 93q31 28 110 28h207q79 0 110 -28q26 -25 38 -65t14 -125h-78q-3 110 -28 135q-17 15 -64 15h-191q-47 0 -64 -15
q-32 -32 -32 -267t32 -267q17 -15 64 -15h191q46 -1 64 15q25 25 29 146z" />
    <glyph glyph-name="cdotaccent" unicode="&#x10b;" horiz-adv-x="552" 
d="M329 725v-96h-88v96h88zM425 181h72q-2 -71 -10.5 -102.5t-28.5 -51.5q-27 -27 -95 -27h-141q-79 0 -109 30q-26 26 -36 73.5t-10 164.5q0 116 10 163.5t36 73.5q30 30 109 30h140q69 0 96 -27q19 -19 27.5 -51t9.5 -97h-72q-3 78 -20 95q-14 14 -56 14h-117
q-50 0 -65 -15q-13 -13 -18.5 -49t-5.5 -137q0 -102 5.5 -138t18.5 -49q16 -15 65 -15h117q43 0 58 14q18 18 20 101z" />
    <glyph glyph-name="Ccaron" unicode="&#x10c;" horiz-adv-x="675" 
d="M188 892h59l100 -72l99 72h58v-5l-116 -119h-84l-116 119v5zM536 229h78q-4 -95 -15.5 -135.5t-37.5 -65.5q-31 -28 -110 -28h-207q-79 0 -110 28q-30 29 -44 93t-14 229t14 229t44 93q31 28 110 28h207q79 0 110 -28q26 -25 38 -65t14 -125h-78q-3 110 -28 135
q-17 15 -64 15h-191q-47 0 -64 -15q-32 -32 -32 -267t32 -267q17 -15 64 -15h191q46 -1 64 15q25 25 29 146z" />
    <glyph glyph-name="ccaron" unicode="&#x10d;" horiz-adv-x="552" 
d="M126 732h59l100 -72l99 72h58v-5l-116 -119h-84l-116 119v5zM425 181h72q-2 -71 -10.5 -102.5t-28.5 -51.5q-27 -27 -95 -27h-141q-79 0 -109 30q-26 26 -36 73.5t-10 164.5q0 116 10 163.5t36 73.5q30 30 109 30h140q69 0 96 -27q19 -19 27.5 -51t9.5 -97h-72
q-3 78 -20 95q-14 14 -56 14h-117q-50 0 -65 -15q-13 -13 -18.5 -49t-5.5 -137q0 -102 5.5 -138t18.5 -49q16 -15 65 -15h117q43 0 58 14q18 18 20 101z" />
    <glyph glyph-name="Dcaron" unicode="&#x10e;" horiz-adv-x="698" 
d="M191 892h59l100 -72l99 72h58v-5l-116 -119h-84l-116 119v5zM95 700h316q101 0 148 -43q34 -33 51.5 -103t17.5 -204t-17.5 -204t-51.5 -103q-47 -43 -148 -43h-316v700zM548 349q0 213 -48 258q-16 15 -34.5 20t-54.5 5h-237v-564h237q64 0 89 25q48 45 48 256z" />
    <glyph glyph-name="dcaron" unicode="&#x10f;" horiz-adv-x="599" 
d="M575 564l23 90q3 14 3 23t-3 24l-19 80v19h84v-74q0 -35 -4.5 -54t-18.5 -45l-37 -74zM439 0v71q-55 -44 -83.5 -58t-68.5 -14h-64q-81 0 -114 33q-24 25 -33 71.5t-9 164.5q0 117 9 163.5t33 71.5q33 33 114 33h64q40 0 68.5 -14t83.5 -58v256h74v-720h-74zM238 65h68
q33 0 61 11t72 39v305q-43 28 -70.5 39t-60.5 11h-70q-53 0 -72 -19q-15 -15 -20 -50.5t-5 -132.5t5 -133t20 -51q21 -19 72 -19z" />
    <glyph glyph-name="Dcroat" unicode="&#x110;" horiz-adv-x="704" 
d="M101 700h316q101 0 148 -43q34 -33 51.5 -103t17.5 -204t-17.5 -204t-51.5 -103q-47 -43 -148 -43h-316v321h-98v66h98v313zM554 349q0 213 -48 258q-16 15 -34.5 20t-54.5 5h-237v-245h162v-66h-162v-253h237q64 0 89 25q48 45 48 256z" />
    <glyph glyph-name="dcroat" unicode="&#x111;" horiz-adv-x="599" 
d="M439 0v71q-55 -44 -83.5 -58t-68.5 -14h-64q-81 0 -114 33q-24 25 -33 71.5t-9 164.5q0 117 9 163.5t33 71.5q33 33 114 33h64q40 0 68.5 -14t83.5 -58v120h-154v59h154v77h74v-77h86v-59h-86v-584h-74zM166 451q-15 -15 -20 -50.5t-5 -132.5t5 -133t20 -51
q21 -19 72 -19h68q33 0 61 11t72 39v305q-43 28 -70.5 39t-60.5 11h-70q-53 0 -72 -19z" />
    <glyph glyph-name="Emacron" unicode="&#x112;" horiz-adv-x="612" 
d="M472 837v-61h-292v61h292zM95 0v700h465v-68h-386v-235h331v-67h-331v-262h383v-68h-462z" />
    <glyph glyph-name="emacron" unicode="&#x113;" horiz-adv-x="575" 
d="M437 677v-61h-292v61h292zM498 244h-357q1 -86 6.5 -119t17.5 -45q15 -15 64 -15h133q43 0 58 15q17 17 18 84h72q-1 -60 -9 -88t-28 -48q-28 -28 -97 -28h-154q-79 0 -109 30q-26 26 -36 73.5t-10 164.5q0 116 10 163.5t36 73.5q30 30 109 30h134q79 0 108 -29
q26 -27 36 -73.5t10 -159.5v-17q0 -12 -12 -12zM164 454q-12 -12 -17 -41.5t-6 -109.5h296q-1 78 -6.5 109t-18.5 43q-16 16 -64 16h-119q-48 0 -65 -17z" />
    <glyph glyph-name="Ebreve" unicode="&#x114;" horiz-adv-x="612" 
d="M326 822q85 0 100 70h52q-4 -60 -43 -93.5t-109 -33.5t-109 33.5t-43 93.5h52q15 -70 100 -70zM95 0v700h465v-68h-386v-235h331v-67h-331v-262h383v-68h-462z" />
    <glyph glyph-name="ebreve" unicode="&#x115;" horiz-adv-x="575" 
d="M291 662q85 0 100 70h52q-4 -60 -43 -93.5t-109 -33.5t-109 33.5t-43 93.5h52q15 -70 100 -70zM498 244h-357q1 -86 6.5 -119t17.5 -45q15 -15 64 -15h133q43 0 58 15q17 17 18 84h72q-1 -60 -9 -88t-28 -48q-28 -28 -97 -28h-154q-79 0 -109 30q-26 26 -36 73.5
t-10 164.5q0 116 10 163.5t36 73.5q30 30 109 30h134q79 0 108 -29q26 -27 36 -73.5t10 -159.5v-17q0 -12 -12 -12zM164 454q-12 -12 -17 -41.5t-6 -109.5h296q-1 78 -6.5 109t-18.5 43q-16 16 -64 16h-119q-48 0 -65 -17z" />
    <glyph glyph-name="Edotaccent" unicode="&#x116;" horiz-adv-x="612" 
d="M370 885v-96h-88v96h88zM95 0v700h465v-68h-386v-235h331v-67h-331v-262h383v-68h-462z" />
    <glyph glyph-name="edotaccent" unicode="&#x117;" horiz-adv-x="575" 
d="M335 725v-96h-88v96h88zM498 244h-357q1 -86 6.5 -119t17.5 -45q15 -15 64 -15h133q43 0 58 15q17 17 18 84h72q-1 -60 -9 -88t-28 -48q-28 -28 -97 -28h-154q-79 0 -109 30q-26 26 -36 73.5t-10 164.5q0 116 10 163.5t36 73.5q30 30 109 30h134q79 0 108 -29
q26 -27 36 -73.5t10 -159.5v-17q0 -12 -12 -12zM164 454q-12 -12 -17 -41.5t-6 -109.5h296q-1 78 -6.5 109t-18.5 43q-16 16 -64 16h-119q-48 0 -65 -17z" />
    <glyph glyph-name="Eogonek" unicode="&#x118;" horiz-adv-x="612" 
d="M555 0h-95q-26 -24 -36 -41q-10 -14 -10 -48q0 -41 6 -47q8 -6 22 -6h32q14 0 21 6q7 7 7 54h55q0 -47 -4.5 -67t-15.5 -31q-15 -14 -52 -14h-57q-37 0 -52 14q-21 18 -21 75q0 40 14 62q12 19 41 43h-317v700h465v-68h-386v-235h331v-67h-331v-262h383v-68z" />
    <glyph glyph-name="eogonek" unicode="&#x119;" horiz-adv-x="575" 
d="M447 -82h55q0 -48 -4 -68t-16 -30q-15 -14 -51 -14h-58q-37 0 -52 14q-20 18 -20 75q0 42 14 62q10 18 40 43h-133q-79 0 -109 30q-26 26 -36 73.5t-10 164.5q0 116 10 163.5t36 73.5q30 30 109 30h134q79 0 108 -29q26 -27 36 -73.5t10 -159.5v-17q0 -12 -12 -12h-357
q1 -86 6.5 -119t17.5 -45q15 -15 64 -15h133q43 0 58 15q17 17 18 84h72q-1 -60 -9 -88t-28 -48q-23 -23 -65 -27q-34 -34 -39 -42q-10 -16 -10 -48q0 -41 7 -47q6 -6 21 -6h32q13 0 21 6q7 7 7 54zM164 454q-12 -12 -17 -41.5t-6 -109.5h296q-1 78 -6.5 109t-18.5 43
q-16 16 -64 16h-119q-48 0 -65 -17z" />
    <glyph glyph-name="Ecaron" unicode="&#x11a;" horiz-adv-x="612" 
d="M167 892h59l100 -72l99 72h58v-5l-116 -119h-84l-116 119v5zM95 0v700h465v-68h-386v-235h331v-67h-331v-262h383v-68h-462z" />
    <glyph glyph-name="ecaron" unicode="&#x11b;" horiz-adv-x="575" 
d="M132 732h59l100 -72l99 72h58v-5l-116 -119h-84l-116 119v5zM498 244h-357q1 -86 6.5 -119t17.5 -45q15 -15 64 -15h133q43 0 58 15q17 17 18 84h72q-1 -60 -9 -88t-28 -48q-28 -28 -97 -28h-154q-79 0 -109 30q-26 26 -36 73.5t-10 164.5q0 116 10 163.5t36 73.5
q30 30 109 30h134q79 0 108 -29q26 -27 36 -73.5t10 -159.5v-17q0 -12 -12 -12zM164 454q-12 -12 -17 -41.5t-6 -109.5h296q-1 78 -6.5 109t-18.5 43q-16 16 -64 16h-119q-48 0 -65 -17z" />
    <glyph glyph-name="Gbreve" unicode="&#x11e;" horiz-adv-x="690" 
d="M347 822q85 0 100 70h52q-4 -60 -43 -93.5t-109 -33.5t-109 33.5t-43 93.5h52q15 -70 100 -70zM244 700h208q79 0 110 -28q27 -26 38 -64t13 -120h-77q-4 106 -28 129q-15 15 -63 15h-194q-47 0 -64 -15q-10 -10 -15.5 -28.5t-10.5 -78t-5 -160.5t5 -160.5t10.5 -78
t15.5 -28.5q17 -15 64 -15h194q45 -1 63 15q30 30 30 181v22h-190v68h269v-56q0 -133 -12.5 -187.5t-42.5 -82.5q-31 -28 -110 -28h-209q-79 0 -110 28q-30 29 -43.5 93t-13.5 229t13.5 229t43.5 93q31 28 111 28z" />
    <glyph glyph-name="gbreve" unicode="&#x11f;" horiz-adv-x="598" 
d="M295 662q85 0 100 70h52q-4 -60 -43 -93.5t-109 -33.5t-109 33.5t-43 93.5h52q15 -70 100 -70zM385 -150h-189q-58 0 -86 26q-28 28 -29 104h74q1 -43 16 -56q11 -12 49 -12h151q38 0 51 13q16 16 16 79v114q-54 -44 -83 -57.5t-69 -13.5h-62q-81 0 -114 33
q-24 25 -33 67.5t-9 144.5t9 144t33 67q33 33 114 33h62q41 0 69.5 -14t82.5 -58v71h74v-523q0 -61 -7.5 -88.5t-26.5 -46.5q-26 -27 -93 -27zM239 112h69q33 0 60.5 11t69.5 38v259q-43 28 -71.5 39.5t-61.5 11.5h-66q-53 0 -72 -19q-15 -15 -20 -45t-5 -115
q0 -86 5 -115.5t20 -44.5q18 -20 72 -20z" />
    <glyph glyph-name="Gdotaccent" unicode="&#x120;" horiz-adv-x="690" 
d="M391 885v-96h-88v96h88zM244 700h208q79 0 110 -28q27 -26 38 -64t13 -120h-77q-4 106 -28 129q-15 15 -63 15h-194q-47 0 -64 -15q-10 -10 -15.5 -28.5t-10.5 -78t-5 -160.5t5 -160.5t10.5 -78t15.5 -28.5q17 -15 64 -15h194q45 -1 63 15q30 30 30 181v22h-190v68h269
v-56q0 -133 -12.5 -187.5t-42.5 -82.5q-31 -28 -110 -28h-209q-79 0 -110 28q-30 29 -43.5 93t-13.5 229t13.5 229t43.5 93q31 28 111 28z" />
    <glyph glyph-name="gdotaccent" unicode="&#x121;" horiz-adv-x="598" 
d="M339 725v-96h-88v96h88zM385 -150h-189q-58 0 -86 26q-28 28 -29 104h74q1 -43 16 -56q11 -12 49 -12h151q38 0 51 13q16 16 16 79v114q-54 -44 -83 -57.5t-69 -13.5h-62q-81 0 -114 33q-24 25 -33 67.5t-9 144.5t9 144t33 67q33 33 114 33h62q41 0 69.5 -14t82.5 -58v71
h74v-523q0 -61 -7.5 -88.5t-26.5 -46.5q-26 -27 -93 -27zM239 112h69q33 0 60.5 11t69.5 38v259q-43 28 -71.5 39.5t-61.5 11.5h-66q-53 0 -72 -19q-15 -15 -20 -45t-5 -115q0 -86 5 -115.5t20 -44.5q18 -20 72 -20z" />
    <glyph glyph-name="Gcommaaccent" unicode="&#x122;" horiz-adv-x="690" 
d="M244 700h208q79 0 110 -28q27 -26 38 -64t13 -120h-77q-4 106 -28 129q-15 15 -63 15h-194q-47 0 -64 -15q-10 -10 -15.5 -28.5t-10.5 -78t-5 -160.5t5 -160.5t10.5 -78t15.5 -28.5q17 -15 64 -15h194q45 -1 63 15q30 30 30 181v22h-190v68h269v-56q0 -133 -12.5 -187.5
t-42.5 -82.5q-31 -28 -110 -28h-209q-79 0 -110 28q-30 29 -43.5 93t-13.5 229t13.5 229t43.5 93q31 28 111 28zM392 -70v-91q0 -33 -20 -56l-72 -85l-25 20l58 85q7 11 7 25v7h-37v95h89z" />
    <glyph glyph-name="gcommaaccent" unicode="&#x123;" horiz-adv-x="598" 
d="M251 631v91q0 33 20 56l72 85l25 -20l-58 -85q-7 -10 -7 -25v-7h37v-95h-89zM385 -150h-189q-58 0 -86 26q-28 28 -29 104h74q1 -43 16 -56q11 -12 49 -12h151q38 0 51 13q16 16 16 79v114q-54 -44 -83 -57.5t-69 -13.5h-62q-81 0 -114 33q-24 25 -33 67.5t-9 144.5
t9 144t33 67q33 33 114 33h62q41 0 69.5 -14t82.5 -58v71h74v-523q0 -61 -7.5 -88.5t-26.5 -46.5q-26 -27 -93 -27zM239 112h69q33 0 60.5 11t69.5 38v259q-43 28 -71.5 39.5t-61.5 11.5h-66q-53 0 -72 -19q-15 -15 -20 -45t-5 -115q0 -86 5 -115.5t20 -44.5q18 -20 72 -20z
" />
    <glyph glyph-name="Hbar" unicode="&#x126;" horiz-adv-x="735" 
d="M738 575v-65h-98v-510h-79v322h-387v-322h-79v510h-98v65h98v125h79v-125h387v125h79v-125h98zM561 510h-387v-120h387v120z" />
    <glyph glyph-name="hbar" unicode="&#x127;" 
d="M86 584h-86v59h86v77h74v-77h153v-59h-153v-120q55 44 83 58t69 14h78q64 0 93 -28q28 -29 28 -107v-401h-74v396q0 43 -16 59q-15 15 -60 15h-70q-33 0 -60.5 -10.5t-70.5 -37.5v-422h-74v584z" />
    <glyph glyph-name="Imacron" unicode="&#x12a;" horiz-adv-x="276" 
d="M284 837v-61h-292v61h292zM99 700h79v-700h-79v700z" />
    <glyph glyph-name="imacron" unicode="&#x12b;" horiz-adv-x="248" 
d="M270 677v-61h-292v61h292zM87 0v535h74v-535h-74z" />
    <glyph glyph-name="Ibreve" unicode="&#x12c;" horiz-adv-x="276" 
d="M138 822q85 0 100 70h52q-4 -60 -43 -93.5t-109 -33.5t-109 33.5t-43 93.5h52q15 -70 100 -70zM99 700h79v-700h-79v700z" />
    <glyph glyph-name="ibreve" unicode="&#x12d;" horiz-adv-x="248" 
d="M124 662q85 0 100 70h52q-4 -60 -43 -93.5t-109 -33.5t-109 33.5t-43 93.5h52q15 -70 100 -70zM87 0v535h74v-535h-74z" />
    <glyph glyph-name="Iogonek" unicode="&#x12e;" horiz-adv-x="281" 
d="M180 0h-38q-28 -26 -37 -41q-10 -16 -10 -48q0 -40 7 -47q8 -6 21 -6h33q14 0 20 6q8 7 8 54h55q0 -47 -4.5 -67t-16.5 -31q-14 -14 -51 -14h-57q-38 0 -52 14q-21 18 -21 75q0 40 14 62q12 21 50 50v693h79v-700z" />
    <glyph glyph-name="iogonek" unicode="&#x12f;" horiz-adv-x="248" 
d="M80 634v96h88v-96h-88zM161 0h-35q-26 -24 -36 -41q-10 -14 -10 -48q0 -41 6 -47q7 -6 22 -6h32q14 0 21 6q7 7 7 54h55q0 -47 -4.5 -67t-15.5 -31q-15 -14 -52 -14h-57q-37 0 -52 14q-21 18 -21 75q0 40 14 62q14 23 52 52v526h74v-535z" />
    <glyph glyph-name="Idotaccent" unicode="&#x130;" horiz-adv-x="276" 
d="M182 885v-96h-88v96h88zM99 700h79v-700h-79v700z" />
    <glyph glyph-name="dotlessi" unicode="&#x131;" horiz-adv-x="248" 
d="M87 0v535h74v-535h-74z" />
    <glyph glyph-name="Kcommaaccent" unicode="&#x136;" horiz-adv-x="627" 
d="M316 368l295 -368h-95l-262 329h-80v-329h-79v700h79v-303h78l260 303h93zM383 -70v-91q0 -33 -20 -56l-72 -85l-25 20l58 85q7 11 7 25v7h-37v95h89z" />
    <glyph glyph-name="kcommaaccent" unicode="&#x137;" horiz-adv-x="522" 
d="M86 720h74v-419h55l197 234h89l-228 -261l236 -274h-93l-203 239h-53v-239h-74v720zM331 -70v-91q0 -33 -20 -56l-72 -85l-25 20l58 85q7 11 7 25v7h-37v95h89z" />
    <glyph glyph-name="Lacute" unicode="&#x139;" horiz-adv-x="565" 
d="M192 884h116v-5l-141 -113h-67v5zM530 68v-68h-435v700h79v-632h356z" />
    <glyph glyph-name="lacute" unicode="&#x13a;" horiz-adv-x="245" 
d="M167 884h116v-5l-141 -113h-67v5zM86 720h74v-720h-74v720z" />
    <glyph glyph-name="Lcommaaccent" unicode="&#x13b;" horiz-adv-x="565" 
d="M530 68v-68h-435v700h79v-632h356zM355 -70v-91q0 -33 -20 -56l-72 -85l-25 20l58 85q7 11 7 25v7h-37v95h89z" />
    <glyph glyph-name="lcommaaccent" unicode="&#x13c;" horiz-adv-x="245" 
d="M86 720h74v-720h-74v720zM168 -70v-91q0 -33 -20 -56l-72 -85l-25 20l58 85q7 11 7 25v7h-37v95h89z" />
    <glyph glyph-name="Lcaron" unicode="&#x13d;" horiz-adv-x="565" 
d="M251 564l23 90q3 14 3 23t-3 24l-19 80v19h84v-74q0 -35 -4.5 -54t-18.5 -45l-37 -74zM530 68v-68h-435v700h79v-632h356z" />
    <glyph glyph-name="lcaron" unicode="&#x13e;" horiz-adv-x="245" 
d="M222 564l23 90q3 14 3 23t-3 24l-19 80v19h84v-74q0 -35 -4.5 -54t-18.5 -45l-37 -74zM86 720h74v-720h-74v720z" />
    <glyph glyph-name="Ldot" unicode="&#x13f;" horiz-adv-x="565" 
d="M530 68v-68h-435v700h79v-632h356zM469 436v-96h-88v96h88z" />
    <glyph glyph-name="ldot" unicode="&#x140;" horiz-adv-x="344" 
d="M86 720h74v-720h-74v720zM251 391h88v-96h-88v96z" />
    <glyph glyph-name="Lslash" unicode="&#x141;" horiz-adv-x="574" 
d="M361 455v-66l-179 -53v-268h356v-68h-435v313l-97 -28v66l97 28v321h79v-298z" />
    <glyph glyph-name="lslash" unicode="&#x142;" horiz-adv-x="265" 
d="M95 330l-88 -25v66l88 26v323h74v-301l88 26v-67l-88 -26v-352h-74v330z" />
    <glyph glyph-name="Nacute" unicode="&#x143;" horiz-adv-x="726" 
d="M408 884h116v-5l-141 -113h-67v5zM631 0h-81q-19 0 -28 5.5t-17 21.5l-321 571h-12v-598h-77v700h87q18 0 27 -5.5t17 -22.5l315 -556h13v584h77v-700z" />
    <glyph glyph-name="nacute" unicode="&#x144;" 
d="M346 724h116v-5l-141 -113h-67v5zM86 535h74v-71q55 44 83 58t69 14h78q64 0 93 -28q28 -29 28 -107v-401h-74v396q0 43 -16 59q-15 15 -60 15h-70q-33 0 -60.5 -10.5t-70.5 -37.5v-422h-74v535z" />
    <glyph glyph-name="Ncommaaccent" unicode="&#x145;" horiz-adv-x="726" 
d="M631 0h-81q-19 0 -28 5.5t-17 21.5l-321 571h-12v-598h-77v700h87q18 0 27 -5.5t17 -22.5l315 -556h13v584h77v-700zM409 -70v-91q0 -33 -20 -56l-72 -85l-25 20l58 85q7 11 7 25v7h-37v95h89z" />
    <glyph glyph-name="ncommaaccent" unicode="&#x146;" 
d="M86 535h74v-71q55 44 83 58t69 14h78q64 0 93 -28q28 -29 28 -107v-401h-74v396q0 43 -16 59q-15 15 -60 15h-70q-33 0 -60.5 -10.5t-70.5 -37.5v-422h-74v535zM347 -70v-91q0 -33 -20 -56l-72 -85l-25 20l58 85q7 11 7 25v7h-37v95h89z" />
    <glyph glyph-name="Ncaron" unicode="&#x147;" horiz-adv-x="726" 
d="M205 892h59l100 -72l99 72h58v-5l-116 -119h-84l-116 119v5zM631 0h-81q-19 0 -28 5.5t-17 21.5l-321 571h-12v-598h-77v700h87q18 0 27 -5.5t17 -22.5l315 -556h13v584h77v-700z" />
    <glyph glyph-name="ncaron" unicode="&#x148;" 
d="M143 732h59l100 -72l99 72h58v-5l-116 -119h-84l-116 119v5zM86 535h74v-71q55 44 83 58t69 14h78q64 0 93 -28q28 -29 28 -107v-401h-74v396q0 43 -16 59q-15 15 -60 15h-70q-33 0 -60.5 -10.5t-70.5 -37.5v-422h-74v535z" />
    <glyph glyph-name="Omacron" unicode="&#x14c;" horiz-adv-x="704" 
d="M498 837v-61h-292v61h292zM244 700h216q81 0 110 -28q31 -28 44.5 -92t13.5 -230t-13.5 -230t-44.5 -92q-29 -28 -110 -28h-216q-79 0 -110 28q-30 29 -44 93t-14 229t14 229t44 93q31 28 110 28zM156 350q0 -235 32 -267q17 -15 64 -15h200q46 -1 64 15q10 9 16 28
t11 78.5t5 160.5t-5 160.5t-11 78.5t-16 28q-17 15 -64 15h-200q-47 0 -64 -15q-32 -32 -32 -267z" />
    <glyph glyph-name="omacron" unicode="&#x14d;" horiz-adv-x="584" 
d="M437 677v-61h-292v61h292zM362 0h-140q-79 0 -109 30q-26 26 -36 73.5t-10 164.5q0 116 10 163.5t36 73.5q30 30 109 30h140q79 0 108 -30q27 -26 37 -73t10 -164t-10 -164.5t-37 -73.5q-29 -30 -108 -30zM141 268q0 -102 5.5 -138t18.5 -49q16 -15 65 -15h124
q49 0 64 15q13 13 19 49.5t6 137.5q0 100 -6 136.5t-19 49.5q-14 15 -64 15h-124q-50 0 -65 -15q-13 -13 -18.5 -49t-5.5 -137z" />
    <glyph glyph-name="Obreve" unicode="&#x14e;" horiz-adv-x="704" 
d="M352 822q85 0 100 70h52q-4 -60 -43 -93.5t-109 -33.5t-109 33.5t-43 93.5h52q15 -70 100 -70zM244 700h216q81 0 110 -28q31 -28 44.5 -92t13.5 -230t-13.5 -230t-44.5 -92q-29 -28 -110 -28h-216q-79 0 -110 28q-30 29 -44 93t-14 229t14 229t44 93q31 28 110 28z
M156 350q0 -235 32 -267q17 -15 64 -15h200q46 -1 64 15q10 9 16 28t11 78.5t5 160.5t-5 160.5t-11 78.5t-16 28q-17 15 -64 15h-200q-47 0 -64 -15q-32 -32 -32 -267z" />
    <glyph glyph-name="obreve" unicode="&#x14f;" horiz-adv-x="584" 
d="M291 662q85 0 100 70h52q-4 -60 -43 -93.5t-109 -33.5t-109 33.5t-43 93.5h52q15 -70 100 -70zM362 0h-140q-79 0 -109 30q-26 26 -36 73.5t-10 164.5q0 116 10 163.5t36 73.5q30 30 109 30h140q79 0 108 -30q27 -26 37 -73t10 -164t-10 -164.5t-37 -73.5
q-29 -30 -108 -30zM141 268q0 -102 5.5 -138t18.5 -49q16 -15 65 -15h124q49 0 64 15q13 13 19 49.5t6 137.5q0 100 -6 136.5t-19 49.5q-14 15 -64 15h-124q-50 0 -65 -15q-13 -13 -18.5 -49t-5.5 -137z" />
    <glyph glyph-name="Ohungarumlaut" unicode="&#x150;" horiz-adv-x="704" 
d="M314 884h110v-5l-137 -113h-64v5zM496 884h109v-5l-141 -113h-64v5zM244 700h216q81 0 110 -28q31 -28 44.5 -92t13.5 -230t-13.5 -230t-44.5 -92q-29 -28 -110 -28h-216q-79 0 -110 28q-30 29 -44 93t-14 229t14 229t44 93q31 28 110 28zM156 350q0 -235 32 -267
q17 -15 64 -15h200q46 -1 64 15q10 9 16 28t11 78.5t5 160.5t-5 160.5t-11 78.5t-16 28q-17 15 -64 15h-200q-47 0 -64 -15q-32 -32 -32 -267z" />
    <glyph glyph-name="ohungarumlaut" unicode="&#x151;" horiz-adv-x="584" 
d="M254 724h110v-5l-137 -113h-64v5zM436 724h109v-5l-141 -113h-64v5zM362 0h-140q-79 0 -109 30q-26 26 -36 73.5t-10 164.5q0 116 10 163.5t36 73.5q30 30 109 30h140q79 0 108 -30q27 -26 37 -73t10 -164t-10 -164.5t-37 -73.5q-29 -30 -108 -30zM141 268
q0 -102 5.5 -138t18.5 -49q16 -15 65 -15h124q49 0 64 15q13 13 19 49.5t6 137.5q0 100 -6 136.5t-19 49.5q-14 15 -64 15h-124q-50 0 -65 -15q-13 -13 -18.5 -49t-5.5 -137z" />
    <glyph glyph-name="OE" unicode="&#x152;" horiz-adv-x="1041" 
d="M982 0h-694q-102 0 -149 43q-34 33 -51 102.5t-17 204.5t17 204.5t51 102.5q47 43 149 43h697v-68h-382v-235h327v-67h-327v-262h379v-68zM151 349q0 -122 12 -178t35 -78q25 -25 90 -25h236v564h-236q-64 0 -90 -25q-23 -22 -35 -78.5t-12 -179.5z" />
    <glyph glyph-name="oe" unicode="&#x153;" horiz-adv-x="953" 
d="M353 0h-131q-79 0 -109 30q-26 26 -36 73.5t-10 164.5q0 116 10 163.5t36 73.5q30 30 109 30h131q77 0 107 -30q9 -10 20 -27q7 14 20 27q30 30 108 30h125q79 0 108 -29q27 -27 36.5 -73t9.5 -160v-17q0 -12 -12 -12h-357q1 -140 24 -164q15 -15 64 -15h133q43 0 58 15
q17 17 18 84h72q-1 -60 -9 -88t-28 -48q-28 -28 -97 -28h-145q-78 0 -108 30q-14 14 -20 26q-9 -15 -20 -26q-30 -30 -107 -30zM541 454q-12 -12 -17 -41.5t-6 -109.5h296q-1 129 -24 152q-17 16 -64 16h-120q-48 0 -65 -17zM141 268q0 -102 5.5 -138t18.5 -49
q16 -15 65 -15h124q49 0 64 15q13 13 19 49.5t6 137.5q0 100 -6 136.5t-19 49.5q-14 15 -64 15h-124q-50 0 -65 -15q-13 -13 -18.5 -49t-5.5 -137z" />
    <glyph glyph-name="Racute" unicode="&#x154;" horiz-adv-x="679" 
d="M385 884h116v-5l-141 -113h-67v5zM511 184q-2 81 -25 101q-20 19 -78 19h-234v-304h-79v700h354q73 0 103 -29q22 -22 33 -58t11 -107q0 -87 -24 -123t-80 -48v-1q55 -13 75 -40.5t24 -107.5q5 -135 11 -186h-78q-10 65 -13 184zM174 370h254q44 0 61 17q28 28 28 115
q0 89 -27 116q-14 14 -60 14h-256v-262z" />
    <glyph glyph-name="racute" unicode="&#x155;" horiz-adv-x="388" 
d="M263 724h116v-5l-141 -113h-67v5zM86 535h74v-87q51 54 76.5 71t57.5 17h64v-76h-71q-33 0 -59.5 -9t-67.5 -37v-414h-74v535z" />
    <glyph glyph-name="Rcommaaccent" unicode="&#x156;" horiz-adv-x="674" 
d="M510 184q-2 81 -25 101q-20 19 -78 19h-234v-304h-79v700h354q73 0 103 -29q22 -22 33 -58t11 -107q0 -87 -24 -123t-80 -48v-1q55 -13 75 -40.5t24 -107.5q5 -135 11 -186h-78q-10 65 -13 184zM173 370h254q44 0 61 17q28 28 28 115q0 89 -27 116q-14 14 -60 14h-256
v-262zM387 -70v-91q0 -33 -20 -56l-72 -85l-25 20l58 85q7 11 7 25v7h-37v95h89z" />
    <glyph glyph-name="rcommaaccent" unicode="&#x157;" horiz-adv-x="388" 
d="M86 535h74v-87q51 54 76.5 71t57.5 17h64v-76h-71q-33 0 -59.5 -9t-67.5 -37v-414h-74v535zM166 -70v-91q0 -33 -20 -56l-72 -85l-25 20l58 85q7 11 7 25v7h-37v95h89z" />
    <glyph glyph-name="Rcaron" unicode="&#x158;" horiz-adv-x="679" 
d="M182 892h59l100 -72l99 72h58v-5l-116 -119h-84l-116 119v5zM511 184q-2 81 -25 101q-20 19 -78 19h-234v-304h-79v700h354q73 0 103 -29q22 -22 33 -58t11 -107q0 -87 -24 -123t-80 -48v-1q55 -13 75 -40.5t24 -107.5q5 -135 11 -186h-78q-10 65 -13 184zM174 370h254
q44 0 61 17q28 28 28 115q0 89 -27 116q-14 14 -60 14h-256v-262z" />
    <glyph glyph-name="rcaron" unicode="&#x159;" horiz-adv-x="388" 
d="M61 732h59l100 -72l99 72h58v-5l-116 -119h-84l-116 119v5zM86 535h74v-87q51 54 76.5 71t57.5 17h64v-76h-71q-33 0 -59.5 -9t-67.5 -37v-414h-74v535z" />
    <glyph glyph-name="Sacute" unicode="&#x15a;" horiz-adv-x="666" 
d="M375 884h116v-5l-141 -113h-67v5zM595 193q0 -69 -9 -104.5t-32 -57.5q-31 -31 -102 -31h-239q-74 0 -102 29q-21 21 -29 56t-9 126h77q1 -70 5 -94t14 -34q15 -15 56 -15h215q43 0 58 16q19 19 19 108q0 49 -3.5 68t-14.5 30q-16 14 -62 18l-219 20q-75 7 -103 35
q-19 19 -26 49.5t-7 97.5q0 65 9 101t32 58q29 31 101 31h217q75 0 103 -29q21 -21 29 -55t9 -122h-78q-1 105 -18 123q-17 15 -56 15h-194q-42 0 -58 -16q-18 -19 -18 -105q0 -46 3.5 -64.5t14.5 -29.5q13 -13 62 -17l219 -20q74 -7 102 -35q19 -19 26.5 -51t7.5 -101z" />
    <glyph glyph-name="sacute" unicode="&#x15b;" horiz-adv-x="551" 
d="M321 724h116v-5l-141 -113h-67v5zM488 151q0 -94 -33 -127q-24 -24 -79 -24h-196q-62 0 -85 23q-18 18 -24 44.5t-7 94.5h68q2 -74 16 -88q12 -12 45 -12h166q31 0 44 13q15 15 15 72q0 56 -13 67q-11 13 -51 15l-170 17q-66 7 -86 27q-15 15 -21 39.5t-6 75.5
q0 90 33 123q24 24 79 24h185q59 0 82 -23q17 -17 23.5 -44t7.5 -91h-68q-2 70 -16 84q-12 12 -45 12h-153q-30 0 -42 -12q-16 -16 -16 -69t12 -64q11 -12 52 -16l172 -17q64 -5 85 -26q26 -26 26 -118z" />
    <glyph glyph-name="Scedilla" unicode="&#x15e;" horiz-adv-x="666" 
d="M595 193q0 -69 -9 -104.5t-32 -57.5q-31 -31 -102 -31h-239q-74 0 -102 29q-21 21 -29 56t-9 126h77q1 -70 5 -94t14 -34q15 -15 56 -15h215q43 0 58 16q19 19 19 108q0 49 -3.5 68t-14.5 30q-16 14 -62 18l-219 20q-75 7 -103 35q-19 19 -26 49.5t-7 97.5q0 65 9 101
t32 58q29 31 101 31h217q75 0 103 -29q21 -21 29 -55t9 -122h-78q-1 105 -18 123q-17 15 -56 15h-194q-42 0 -58 -16q-18 -19 -18 -105q0 -46 3.5 -64.5t14.5 -29.5q13 -13 62 -17l219 -20q74 -7 102 -35q19 -19 26.5 -51t7.5 -101zM292 -45h54q47 0 62 -15q19 -19 19 -64
t-19 -64q-16 -16 -64 -16h-69l-44 32v14h105q21 0 28 7q8 7 8 27q0 21 -8 28q-7 7 -28 7h-44v44z" />
    <glyph glyph-name="scedilla" unicode="&#x15f;" horiz-adv-x="551" 
d="M488 151q0 -94 -33 -127q-24 -24 -79 -24h-196q-62 0 -85 23q-18 18 -24 44.5t-7 94.5h68q2 -74 16 -88q12 -12 45 -12h166q31 0 44 13q15 15 15 72q0 56 -13 67q-11 13 -51 15l-170 17q-66 7 -86 27q-15 15 -21 39.5t-6 75.5q0 90 33 123q24 24 79 24h185q59 0 82 -23
q17 -17 23.5 -44t7.5 -91h-68q-2 70 -16 84q-12 12 -45 12h-153q-30 0 -42 -12q-16 -16 -16 -69t12 -64q11 -12 52 -16l172 -17q64 -5 85 -26q26 -26 26 -118zM231 -45h54q47 0 62 -15q19 -19 19 -64t-19 -64q-16 -16 -64 -16h-69l-44 32v14h105q21 0 28 7q8 7 8 27
q0 21 -8 28q-7 7 -28 7h-44v44z" />
    <glyph glyph-name="Scaron" unicode="&#x160;" horiz-adv-x="666" 
d="M172 892h59l100 -72l99 72h58v-5l-116 -119h-84l-116 119v5zM595 193q0 -69 -9 -104.5t-32 -57.5q-31 -31 -102 -31h-239q-74 0 -102 29q-21 21 -29 56t-9 126h77q1 -70 5 -94t14 -34q15 -15 56 -15h215q43 0 58 16q19 19 19 108q0 49 -3.5 68t-14.5 30q-16 14 -62 18
l-219 20q-75 7 -103 35q-19 19 -26 49.5t-7 97.5q0 65 9 101t32 58q29 31 101 31h217q75 0 103 -29q21 -21 29 -55t9 -122h-78q-1 105 -18 123q-17 15 -56 15h-194q-42 0 -58 -16q-18 -19 -18 -105q0 -46 3.5 -64.5t14.5 -29.5q13 -13 62 -17l219 -20q74 -7 102 -35
q19 -19 26.5 -51t7.5 -101z" />
    <glyph glyph-name="scaron" unicode="&#x161;" horiz-adv-x="551" 
d="M117 732h59l100 -72l99 72h58v-5l-116 -119h-84l-116 119v5zM488 151q0 -94 -33 -127q-24 -24 -79 -24h-196q-62 0 -85 23q-18 18 -24 44.5t-7 94.5h68q2 -74 16 -88q12 -12 45 -12h166q31 0 44 13q15 15 15 72q0 56 -13 67q-11 13 -51 15l-170 17q-66 7 -86 27
q-15 15 -21 39.5t-6 75.5q0 90 33 123q24 24 79 24h185q59 0 82 -23q17 -17 23.5 -44t7.5 -91h-68q-2 70 -16 84q-12 12 -45 12h-153q-30 0 -42 -12q-16 -16 -16 -69t12 -64q11 -12 52 -16l172 -17q64 -5 85 -26q26 -26 26 -118z" />
    <glyph glyph-name="Tcaron" unicode="&#x164;" horiz-adv-x="580" 
d="M131 892h59l100 -72l99 72h58v-5l-116 -119h-84l-116 119v5zM330 0h-79v632h-228v68h535v-68h-228v-632z" />
    <glyph glyph-name="tcaron" unicode="&#x165;" horiz-adv-x="376" 
d="M251 611l23 90q3 13 3 23q0 9 -3 24l-19 80v19h84v-74q0 -35 -4.5 -54t-18.5 -45l-37 -74zM337 16l-47 -12q-38 -8 -72 -8q-54 0 -79 25q-23 23 -23 84v366h-92v64h92v134h75v-134h147v-64h-147v-349q0 -37 11 -47q9 -11 47 -11h88v-48z" />
    <glyph glyph-name="Umacron" unicode="&#x16a;" horiz-adv-x="723" 
d="M506 837v-61h-292v61h292zM627 700v-415q0 -120 -11 -170t-39 -79q-37 -36 -145 -36h-145q-106 0 -142 36q-28 28 -39 77.5t-11 171.5v415h79v-429q0 -95 7 -131t23 -52q19 -19 98 -19h121q78 0 97 19q15 16 22 51.5t7 131.5v429h78z" />
    <glyph glyph-name="umacron" unicode="&#x16b;" 
d="M444 677v-61h-292v61h292zM510 0h-74v72q-55 -45 -83.5 -59t-69.5 -14h-78q-64 0 -92 29q-29 28 -29 106v401h74v-396q0 -43 16 -58q16 -16 61 -16h70q33 0 60.5 10t70.5 38v422h74v-535z" />
    <glyph glyph-name="Ubreve" unicode="&#x16c;" horiz-adv-x="723" 
d="M360 822q85 0 100 70h52q-4 -60 -43 -93.5t-109 -33.5t-109 33.5t-43 93.5h52q15 -70 100 -70zM627 700v-415q0 -120 -11 -170t-39 -79q-37 -36 -145 -36h-145q-106 0 -142 36q-28 28 -39 77.5t-11 171.5v415h79v-429q0 -95 7 -131t23 -52q19 -19 98 -19h121q78 0 97 19
q15 16 22 51.5t7 131.5v429h78z" />
    <glyph glyph-name="ubreve" unicode="&#x16d;" 
d="M298 662q85 0 100 70h52q-4 -60 -43 -93.5t-109 -33.5t-109 33.5t-43 93.5h52q15 -70 100 -70zM510 0h-74v72q-55 -45 -83.5 -59t-69.5 -14h-78q-64 0 -92 29q-29 28 -29 106v401h74v-396q0 -43 16 -58q16 -16 61 -16h70q33 0 60.5 10t70.5 38v422h74v-535z" />
    <glyph glyph-name="Uring" unicode="&#x16e;" horiz-adv-x="723" 
d="M402 769h-84q-46 0 -66 21q-24 24 -24 77t24 78q19 20 66 20h84q47 0 66 -20q24 -25 24 -78t-24 -77q-20 -21 -66 -21zM396 923h-72q-24 0 -33 -9q-11 -11 -11 -47q0 -34 11 -47q8 -8 33 -8h72q25 0 33 8q11 13 11 47q0 36 -11 47q-9 9 -33 9zM627 700v-415
q0 -120 -11 -170t-39 -79q-37 -36 -145 -36h-145q-106 0 -142 36q-28 28 -39 77.5t-11 171.5v415h79v-429q0 -95 7 -131t23 -52q19 -19 98 -19h121q78 0 97 19q15 16 22 51.5t7 131.5v429h78z" />
    <glyph glyph-name="uring" unicode="&#x16f;" 
d="M340 609h-84q-46 0 -66 21q-24 24 -24 77t24 78q19 20 66 20h84q47 0 66 -20q24 -25 24 -78t-24 -77q-20 -21 -66 -21zM334 763h-72q-24 0 -33 -9q-11 -11 -11 -47q0 -34 11 -47q8 -8 33 -8h72q25 0 33 8q11 13 11 47q0 36 -11 47q-9 9 -33 9zM510 0h-74v72
q-55 -45 -83.5 -59t-69.5 -14h-78q-64 0 -92 29q-29 28 -29 106v401h74v-396q0 -43 16 -58q16 -16 61 -16h70q33 0 60.5 10t70.5 38v422h74v-535z" />
    <glyph glyph-name="Uhungarumlaut" unicode="&#x170;" horiz-adv-x="723" 
d="M323 884h110v-5l-137 -113h-64v5zM505 884h109v-5l-141 -113h-64v5zM627 700v-415q0 -120 -11 -170t-39 -79q-37 -36 -145 -36h-145q-106 0 -142 36q-28 28 -39 77.5t-11 171.5v415h79v-429q0 -95 7 -131t23 -52q19 -19 98 -19h121q78 0 97 19q15 16 22 51.5t7 131.5v429
h78z" />
    <glyph glyph-name="uhungarumlaut" unicode="&#x171;" 
d="M261 724h110v-5l-137 -113h-64v5zM443 724h109v-5l-141 -113h-64v5zM510 0h-74v72q-55 -45 -83.5 -59t-69.5 -14h-78q-64 0 -92 29q-29 28 -29 106v401h74v-396q0 -43 16 -58q16 -16 61 -16h70q33 0 60.5 10t70.5 38v422h74v-535z" />
    <glyph glyph-name="Uogonek" unicode="&#x172;" horiz-adv-x="723" 
d="M627 700v-415q0 -120 -11 -170t-39 -79q-37 -36 -145 -36h-43q-26 -24 -36 -41q-10 -14 -10 -48q0 -41 6 -47q7 -6 22 -6h32q14 0 21 6q7 7 7 54h55q0 -47 -4.5 -67t-15.5 -31q-15 -14 -52 -14h-57q-37 0 -52 14q-21 18 -21 75q0 40 14 62q12 19 41 43h-52
q-106 0 -142 36q-28 28 -39 77.5t-11 171.5v415h79v-429q0 -95 7 -131t23 -52q19 -19 98 -19h121q78 0 97 19q15 16 22 51.5t7 131.5v429h78z" />
    <glyph glyph-name="uogonek" unicode="&#x173;" 
d="M510 0h-39q-34 -29 -45 -51q-9 -13 -9 -43q0 -36 6 -42q7 -6 22 -6h32q13 0 21 6q7 7 7 54h55q0 -47 -4.5 -67t-15.5 -31q-15 -14 -52 -14h-57q-37 0 -52 14q-21 18 -21 73q0 37 14 59q14 24 64 62v58q-55 -45 -83.5 -59t-69.5 -14h-78q-64 0 -92 29q-29 28 -29 106v401
h74v-396q0 -43 16 -58q16 -16 61 -16h70q33 0 60.5 10t70.5 38v422h74v-535z" />
    <glyph glyph-name="Wcircumflex" unicode="&#x174;" horiz-adv-x="943" 
d="M372 768h-58v5l116 119h84l116 -119v-5h-59l-100 72zM905 700l-155 -679q-3 -15 -10.5 -19.5t-28.5 -4.5h-49q-20 0 -27.5 4.5t-11.5 20.5l-143 580h-16l-143 -580q-3 -15 -10.5 -20t-28.5 -5h-49q-21 0 -28.5 4.5t-10.5 19.5l-156 679h83l130 -606h16l143 579
q4 18 12.5 24t29.5 6h44q21 0 29 -6t12 -24l143 -579h15l131 606h79z" />
    <glyph glyph-name="wcircumflex" unicode="&#x175;" horiz-adv-x="752" 
d="M276 608h-58v5l116 119h84l116 -119v-5h-59l-100 72zM204 79h12l105 431q4 15 10.5 20.5t22.5 5.5h48q15 0 22 -5.5t11 -20.5l107 -431h12l95 456h72l-118 -512q-3 -15 -10 -20.5t-22 -5.5h-53q-15 0 -21.5 5.5t-10.5 20.5l-105 425h-10l-105 -425q-5 -26 -32 -26h-53
q-15 0 -21.5 5t-10.5 21l-118 512h77z" />
    <glyph glyph-name="Ycircumflex" unicode="&#x176;" horiz-adv-x="589" 
d="M196 768h-58v5l116 119h84l116 -119v-5h-59l-100 72zM335 0h-79v277l-244 423h86l195 -342h6l193 342h85l-242 -422v-278z" />
    <glyph glyph-name="ycircumflex" unicode="&#x177;" horiz-adv-x="532" 
d="M172 608h-58v5l116 119h84l116 -119v-5h-59l-100 72zM270 101h7l147 434h79l-225 -627q-12 -33 -31.5 -46.5t-55.5 -13.5q-33 0 -103 7v60h97q21 0 30 23l22 60l-212 537h84z" />
    <glyph glyph-name="Ydieresis" unicode="&#x178;" horiz-adv-x="589" 
d="M245 879v-95h-83v95h83zM430 879v-95h-83v95h83zM335 0h-79v277l-244 423h86l195 -342h6l193 342h85l-242 -422v-278z" />
    <glyph glyph-name="Zacute" unicode="&#x179;" horiz-adv-x="618" 
d="M361 884h116v-5l-141 -113h-67v5zM50 0v51l422 581h-402v68h503v-51l-423 -581h418v-68h-518z" />
    <glyph glyph-name="zacute" unicode="&#x17a;" horiz-adv-x="504" 
d="M302 724h116v-5l-141 -113h-67v5zM44 0v44l318 425h-304v66h403v-41l-321 -428h318v-66h-414z" />
    <glyph glyph-name="Zdotaccent" unicode="&#x17b;" horiz-adv-x="618" 
d="M361 885v-96h-88v96h88zM50 0v51l422 581h-402v68h503v-51l-423 -581h418v-68h-518z" />
    <glyph glyph-name="zdotaccent" unicode="&#x17c;" horiz-adv-x="504" 
d="M302 725v-96h-88v96h88zM44 0v44l318 425h-304v66h403v-41l-321 -428h318v-66h-414z" />
    <glyph glyph-name="Zcaron" unicode="&#x17d;" horiz-adv-x="618" 
d="M158 892h59l100 -72l99 72h58v-5l-116 -119h-84l-116 119v5zM50 0v51l422 581h-402v68h503v-51l-423 -581h418v-68h-518z" />
    <glyph glyph-name="zcaron" unicode="&#x17e;" horiz-adv-x="504" 
d="M99 732h59l100 -72l99 72h58v-5l-116 -119h-84l-116 119v5zM44 0v44l318 425h-304v66h403v-41l-321 -428h318v-66h-414z" />
    <glyph glyph-name="Aringacute" unicode="&#x1fa;" horiz-adv-x="645" 
d="M365 1027h116v-5l-141 -113h-67v5zM25 0l224 664q-22 4 -35 19q-24 24 -24 77t24 78q19 20 66 20h84q47 0 66 -20q24 -25 24 -78t-24 -77q-12 -14 -34 -18l224 -665h-85l-69 214h-293l-69 -214h-79zM358 816h-72q-24 0 -33 -9q-11 -11 -11 -47q0 -34 11 -47q8 -8 33 -8
h72q25 0 33 8q11 13 11 47q0 36 -11 47q-9 9 -33 9zM444 281l-115 354h-19l-115 -354h249z" />
    <glyph glyph-name="aringacute" unicode="&#x1fb;" horiz-adv-x="572" 
d="M336 984h116v-5l-141 -113h-67v5zM336 609h-84q-46 0 -66 21q-24 24 -24 77t24 78q19 20 66 20h84q47 0 66 -20q24 -25 24 -78t-24 -77q-20 -21 -66 -21zM330 763h-72q-24 0 -33 -9q-11 -11 -11 -47q0 -34 11 -47q8 -8 33 -8h72q25 0 33 8q11 13 11 47q0 36 -11 47
q-9 9 -33 9zM155 376h-72q1 96 34 130q29 29 99 29h144q74 0 101 -28q17 -17 22.5 -42.5t5.5 -80.5v-384h-73v68q-53 -42 -79.5 -55.5t-66.5 -13.5h-78q-71 0 -100 30q-32 30 -32 116q0 89 33 122q19 19 50.5 27.5t103.5 8.5q91 0 169 -13v89q0 66 -15 81q-13 13 -56 13
h-110q-47 0 -62 -15q-17 -18 -18 -82zM207 62h75q35 0 62.5 10t71.5 38v136h-174q-45 0 -63 -4t-28 -14q-18 -18 -18 -73q0 -63 16 -78t58 -15z" />
    <glyph glyph-name="AEacute" unicode="&#x1fc;" horiz-adv-x="999" 
d="M636 884h116v-5l-141 -113h-67v5zM244 233l-131 -233h-81l383 673q9 16 17.5 21.5t26.5 5.5h481v-68h-382v-235h327v-67h-327v-262h379v-68h-457v233h-236zM480 299v337h-8l-191 -337h199z" />
    <glyph glyph-name="aeacute" unicode="&#x1fd;" horiz-adv-x="924" 
d="M504 724h116v-5l-141 -113h-67v5zM249 303q97 0 169 -12v88q0 66 -15 81q-13 13 -56 13h-108q-48 0 -63 -15q-15 -17 -18 -82h-74q1 58 9 85t25 45q29 29 98 29h134q72 0 100 -28q8 -10 11 -15l12 13q30 30 108 30h124q79 0 108 -29q26 -27 36 -73.5t10 -157.5v-19
q0 -12 -12 -12h-357q1 -86 6.5 -119t17.5 -45q15 -15 64 -15h133q43 0 58 15q17 17 18 84h72q-1 -60 -9 -88t-28 -48q-28 -28 -97 -28h-153q-78 0 -108 30q-22 20 -31 51q-62 -52 -90 -67t-71 -15h-78q-71 0 -100 30q-32 30 -32 116q0 89 33 122q19 19 50.5 27.5t103.5 8.5z
M513 454q-12 -12 -17 -41.5t-6 -109.5h296q-1 130 -25 152q-16 16 -64 16h-119q-48 0 -65 -17zM209 62h75q37 0 65.5 11t75.5 42q-7 43 -7 131h-174q-45 0 -63 -4t-28 -14q-18 -18 -18 -73q0 -63 16 -78t58 -15z" />
    <glyph glyph-name="Oslashacute" unicode="&#x1fe;" horiz-adv-x="704" 
d="M400 884h116v-5l-141 -113h-67v5zM481 700l26 53h73l-32 -66q11 -5 22 -15q31 -28 44.5 -92t13.5 -230t-13.5 -230t-44.5 -92q-29 -28 -110 -28h-238l-25 -53h-73l31 66q-12 6 -21 15q-30 29 -44 93t-14 229t14 229t44 93q31 28 110 28h237zM156 350q0 -235 32 -267l2 -3
l260 552h-198q-47 0 -64 -15q-32 -32 -32 -267zM254 68h198q46 -1 64 15q10 9 16 28t11 78.5t5 160.5t-5 160.5t-11 78.5t-16 28l-3 3z" />
    <glyph glyph-name="oslashacute" unicode="&#x1ff;" horiz-adv-x="587" 
d="M341 724h116v-5l-141 -113h-67v5zM363 0h-140q-27 0 -39 1l-27 -51h-71l39 70q-6 4 -10 10q-27 26 -37 73.5t-10 164.5t10 164t37 73q29 30 108 30h140q14 0 36 -2l30 57h71l-41 -74l13 -11q26 -26 36 -73.5t10 -163.5q0 -117 -10 -164.5t-36 -73.5q-30 -30 -109 -30z
M142 268q0 -157 22 -184l201 385h-134q-50 0 -64 -15q-13 -13 -19 -49.5t-6 -136.5zM444 268q0 99 -5.5 135.5t-17.5 49.5l-203 -387h137q49 0 65 15q13 13 18.5 49t5.5 138z" />
    <glyph glyph-name="Scommaaccent" unicode="&#x218;" horiz-adv-x="666" 
d="M595 193q0 -69 -9 -104.5t-32 -57.5q-31 -31 -102 -31h-239q-74 0 -102 29q-21 21 -29 56t-9 126h77q1 -70 5 -94t14 -34q15 -15 56 -15h215q43 0 58 16q19 19 19 108q0 49 -3.5 68t-14.5 30q-16 14 -62 18l-219 20q-75 7 -103 35q-19 19 -26 49.5t-7 97.5q0 65 9 101
t32 58q29 31 101 31h217q75 0 103 -29q21 -21 29 -55t9 -122h-78q-1 105 -18 123q-17 15 -56 15h-194q-42 0 -58 -16q-18 -19 -18 -105q0 -46 3.5 -64.5t14.5 -29.5q13 -13 62 -17l219 -20q74 -7 102 -35q19 -19 26.5 -51t7.5 -101zM379 -70v-91q0 -33 -20 -56l-72 -85
l-25 20l58 85q7 11 7 25v7h-37v95h89z" />
    <glyph glyph-name="scommaaccent" unicode="&#x219;" horiz-adv-x="551" 
d="M488 151q0 -94 -33 -127q-24 -24 -79 -24h-196q-62 0 -85 23q-18 18 -24 44.5t-7 94.5h68q2 -74 16 -88q12 -12 45 -12h166q31 0 44 13q15 15 15 72q0 56 -13 67q-11 13 -51 15l-170 17q-66 7 -86 27q-15 15 -21 39.5t-6 75.5q0 90 33 123q24 24 79 24h185q59 0 82 -23
q17 -17 23.5 -44t7.5 -91h-68q-2 70 -16 84q-12 12 -45 12h-153q-30 0 -42 -12q-16 -16 -16 -69t12 -64q11 -12 52 -16l172 -17q64 -5 85 -26q26 -26 26 -118zM322 -70v-91q0 -33 -20 -56l-72 -85l-25 20l58 85q7 11 7 25v7h-37v95h89z" />
    <glyph glyph-name="uni021A" unicode="&#x21a;" horiz-adv-x="580" 
d="M330 0h-79v632h-228v68h535v-68h-228v-632zM335 -70v-91q0 -33 -20 -56l-72 -85l-25 20l58 85q7 11 7 25v7h-37v95h89z" />
    <glyph glyph-name="uni021B" unicode="&#x21b;" horiz-adv-x="376" 
d="M337 16l-47 -12q-38 -8 -72 -8q-54 0 -79 25q-23 23 -23 84v366h-92v64h92v134h75v-134h147v-64h-147v-349q0 -37 11 -47q9 -11 47 -11h88v-48zM240 -70v-91q0 -33 -20 -56l-72 -85l-25 20l58 85q7 11 7 25v7h-37v95h89z" />
    <glyph glyph-name="schwa" unicode="&#x259;" horiz-adv-x="575" 
d="M67 262v17q0 12 12 12h357q-1 85 -6.5 118.5t-17.5 45.5q-15 15 -64 15h-133q-43 0 -58 -15q-17 -17 -18 -84h-72q1 60 9 88t28 48q28 28 97 28h154q79 0 109 -30q26 -26 36 -73.5t10 -164.5q0 -116 -10 -163.5t-36 -73.5q-30 -30 -109 -30h-134q-79 0 -108 29
q-26 27 -36 73.5t-10 159.5zM413 81q22 22 23 151h-296q1 -78 6.5 -109t18.5 -43q16 -16 64 -16h119q48 0 65 17z" />
    <glyph glyph-name="circumflex" unicode="&#x2c6;" horiz-adv-x="500" 
d="M150 608h-58v5l116 119h84l116 -119v-5h-59l-100 72z" />
    <glyph glyph-name="caron" unicode="&#x2c7;" horiz-adv-x="500" 
d="M92 732h59l100 -72l99 72h58v-5l-116 -119h-84l-116 119v5z" />
    <glyph glyph-name="breve" unicode="&#x2d8;" horiz-adv-x="500" 
d="M250 662q85 0 100 70h52q-4 -60 -43 -93.5t-109 -33.5t-109 33.5t-43 93.5h52q15 -70 100 -70z" />
    <glyph glyph-name="dotaccent" unicode="&#x2d9;" horiz-adv-x="500" 
d="M294 725v-96h-88v96h88z" />
    <glyph glyph-name="ring" unicode="&#x2da;" horiz-adv-x="500" 
d="M292 609h-84q-46 0 -66 21q-24 24 -24 77t24 78q19 20 66 20h84q47 0 66 -20q24 -25 24 -78t-24 -77q-20 -21 -66 -21zM286 763h-72q-24 0 -33 -9q-11 -11 -11 -47q0 -34 11 -47q8 -8 33 -8h72q25 0 33 8q11 13 11 47q0 36 -11 47q-9 9 -33 9z" />
    <glyph glyph-name="ogonek" unicode="&#x2db;" horiz-adv-x="500" 
d="M296 -82h55q0 -47 -4.5 -67t-15.5 -31q-15 -14 -52 -14h-57q-37 0 -52 14q-21 18 -21 75q0 40 14 62q17 28 72 67l25 -19q-33 -30 -42 -46q-10 -14 -10 -48q0 -41 6 -47q8 -6 22 -6h32q14 0 21 6q7 7 7 54z" />
    <glyph glyph-name="tilde" unicode="&#x2dc;" horiz-adv-x="500" 
d="M104 615v66q0 29 10 40q9 11 31 11h12q20 0 61 -15l118 -46l21 60h39v-66q0 -29 -10 -40q-9 -11 -31 -11h-12q-20 0 -61 15l-118 46l-21 -60h-39z" />
    <glyph glyph-name="hungarumlaut" unicode="&#x2dd;" horiz-adv-x="500" 
d="M148 724h110v-5l-137 -113h-64v5zM330 724h109v-5l-141 -113h-64v5z" />
    <glyph glyph-name="uni0326" unicode="&#x326;" horiz-adv-x="0" 
d="M303 -70v-91q0 -33 -20 -56l-72 -85l-25 20l58 85q7 11 7 25v7h-37v95h89z" />
    <glyph glyph-name="Wgrave" unicode="&#x1e80;" horiz-adv-x="943" 
d="M311 879v5h116l92 -113v-5h-67zM905 700l-155 -679q-3 -15 -10.5 -19.5t-28.5 -4.5h-49q-20 0 -27.5 4.5t-11.5 20.5l-143 580h-16l-143 -580q-3 -15 -10.5 -20t-28.5 -5h-49q-21 0 -28.5 4.5t-10.5 19.5l-156 679h83l130 -606h16l143 579q4 18 12.5 24t29.5 6h44
q21 0 29 -6t12 -24l143 -579h15l131 606h79z" />
    <glyph glyph-name="wgrave" unicode="&#x1e81;" horiz-adv-x="752" 
d="M216 719v5h116l92 -113v-5h-67zM204 79h12l105 431q4 15 10.5 20.5t22.5 5.5h48q15 0 22 -5.5t11 -20.5l107 -431h12l95 456h72l-118 -512q-3 -15 -10 -20.5t-22 -5.5h-53q-15 0 -21.5 5.5t-10.5 20.5l-105 425h-10l-105 -425q-5 -26 -32 -26h-53q-15 0 -21.5 5t-10.5 21
l-118 512h77z" />
    <glyph glyph-name="Wacute" unicode="&#x1e82;" horiz-adv-x="943" 
d="M516 884h116v-5l-141 -113h-67v5zM905 700l-155 -679q-3 -15 -10.5 -19.5t-28.5 -4.5h-49q-20 0 -27.5 4.5t-11.5 20.5l-143 580h-16l-143 -580q-3 -15 -10.5 -20t-28.5 -5h-49q-21 0 -28.5 4.5t-10.5 19.5l-156 679h83l130 -606h16l143 579q4 18 12.5 24t29.5 6h44
q21 0 29 -6t12 -24l143 -579h15l131 606h79z" />
    <glyph glyph-name="wacute" unicode="&#x1e83;" horiz-adv-x="752" 
d="M420 724h116v-5l-141 -113h-67v5zM204 79h12l105 431q4 15 10.5 20.5t22.5 5.5h48q15 0 22 -5.5t11 -20.5l107 -431h12l95 456h72l-118 -512q-3 -15 -10 -20.5t-22 -5.5h-53q-15 0 -21.5 5.5t-10.5 20.5l-105 425h-10l-105 -425q-5 -26 -32 -26h-53q-15 0 -21.5 5
t-10.5 21l-118 512h77z" />
    <glyph glyph-name="Wdieresis" unicode="&#x1e84;" horiz-adv-x="943" 
d="M421 879v-95h-83v95h83zM606 879v-95h-83v95h83zM905 700l-155 -679q-3 -15 -10.5 -19.5t-28.5 -4.5h-49q-20 0 -27.5 4.5t-11.5 20.5l-143 580h-16l-143 -580q-3 -15 -10.5 -20t-28.5 -5h-49q-21 0 -28.5 4.5t-10.5 19.5l-156 679h83l130 -606h16l143 579q4 18 12.5 24
t29.5 6h44q21 0 29 -6t12 -24l143 -579h15l131 606h79z" />
    <glyph glyph-name="wdieresis" unicode="&#x1e85;" horiz-adv-x="752" 
d="M325 719v-95h-83v95h83zM510 719v-95h-83v95h83zM204 79h12l105 431q4 15 10.5 20.5t22.5 5.5h48q15 0 22 -5.5t11 -20.5l107 -431h12l95 456h72l-118 -512q-3 -15 -10 -20.5t-22 -5.5h-53q-15 0 -21.5 5.5t-10.5 20.5l-105 425h-10l-105 -425q-5 -26 -32 -26h-53
q-15 0 -21.5 5t-10.5 21l-118 512h77z" />
    <glyph glyph-name="Ygrave" unicode="&#x1ef2;" horiz-adv-x="589" 
d="M135 879v5h116l92 -113v-5h-67zM335 0h-79v277l-244 423h86l195 -342h6l193 342h85l-242 -422v-278z" />
    <glyph glyph-name="ygrave" unicode="&#x1ef3;" horiz-adv-x="532" 
d="M112 719v5h116l92 -113v-5h-67zM270 101h7l147 434h79l-225 -627q-12 -33 -31.5 -46.5t-55.5 -13.5q-33 0 -103 7v60h97q21 0 30 23l22 60l-212 537h84z" />
    <glyph glyph-name="enspace" unicode="&#x2002;" horiz-adv-x="500" 
 />
    <glyph glyph-name="uni2003" unicode="&#x2003;" horiz-adv-x="1000" 
 />
    <glyph glyph-name="uni2004" unicode="&#x2004;" horiz-adv-x="333" 
 />
    <glyph glyph-name="uni2005" unicode="&#x2005;" horiz-adv-x="250" 
 />
    <glyph glyph-name="uni2009" unicode="&#x2009;" horiz-adv-x="133" 
 />
    <glyph glyph-name="uni200A" unicode="&#x200a;" horiz-adv-x="75" 
 />
    <glyph glyph-name="endash" unicode="&#x2013;" horiz-adv-x="554" 
d="M69 355h416v-73h-416v73z" />
    <glyph glyph-name="emdash" unicode="&#x2014;" horiz-adv-x="994" 
d="M69 354h856v-71h-856v71z" />
    <glyph glyph-name="quoteleft" unicode="&#x2018;" horiz-adv-x="224" 
d="M59 452v100q0 37 22 62l83 99l28 -22l-68 -99q-7 -11 -7 -28v-8h39v-104h-97z" />
    <glyph glyph-name="quoteright" unicode="&#x2019;" horiz-adv-x="224" 
d="M165 700v-100q0 -35 -22 -61l-83 -99l-28 22l68 99q7 10 7 27v8h-40v104h98z" />
    <glyph glyph-name="quotesinglbase" unicode="&#x201a;" horiz-adv-x="226" 
d="M161 104v-100q0 -37 -22 -62l-83 -98l-28 22l68 98q7 11 7 28v8h-39v104h97z" />
    <glyph glyph-name="quotedblleft" unicode="&#x201c;" horiz-adv-x="407" 
d="M59 452v100q0 37 22 62l83 99l28 -22l-68 -99q-7 -11 -7 -28v-8h39v-104h-97zM242 452v100q0 36 22 62l84 99l28 -22l-68 -99q-8 -13 -8 -28v-8h40v-104h-98z" />
    <glyph glyph-name="quotedblright" unicode="&#x201d;" horiz-adv-x="407" 
d="M165 700v-100q0 -35 -22 -61l-83 -99l-28 22l68 99q7 10 7 27v8h-40v104h98zM349 700v-100q0 -35 -22 -61l-84 -99l-28 22l68 99q8 11 8 27v8h-40v104h98z" />
    <glyph glyph-name="quotedblbase" unicode="&#x201e;" horiz-adv-x="408" 
d="M161 104v-100q0 -37 -22 -62l-83 -98l-28 22l68 98q7 11 7 28v8h-39v104h97zM345 104v-100q0 -36 -22 -62l-83 -98l-28 22l67 98q8 13 8 28v8h-40v104h98z" />
    <glyph glyph-name="dagger" unicode="&#x2020;" horiz-adv-x="487" 
d="M226 566l-21 134h77l-21 -134h-35zM204 515l-127 -21v72l127 -21v-30zM283 515v30l127 21v-72zM228 117l-21 257l19 120h35l19 -120l-21 -257h-31z" />
    <glyph glyph-name="daggerdbl" unicode="&#x2021;" horiz-adv-x="495" 
d="M230 566l-21 134h77l-21 -134h-35zM208 515l-127 -21v72l127 -21v-30zM287 515v30l127 21v-72zM230 206l-18 144l18 144h35l18 -144l-18 -144h-35zM208 185v-30l-127 -21v72zM287 185l127 21v-72l-127 21v30zM230 134h35l21 -134h-77z" />
    <glyph glyph-name="bullet" unicode="&#x2022;" horiz-adv-x="487" 
d="M146 251q-13 13 -18 35.5t-5 76.5t5 76.5t18 35.5q16 17 58 17h80q41 0 57 -17q13 -13 18 -35.5t5 -76.5t-5 -76.5t-18 -35.5q-16 -17 -57 -17h-80q-42 0 -58 17z" />
    <glyph glyph-name="ellipsis" unicode="&#x2026;" horiz-adv-x="709" 
d="M166 0h-93v102h93v-102zM402 0h-94v102h94v-102zM637 0h-94v102h94v-102z" />
    <glyph glyph-name="guilsinglleft" unicode="&#x2039;" horiz-adv-x="362" 
d="M214 452h85l-171 -184l172 -184h-86l-154 159v49z" />
    <glyph glyph-name="guilsinglright" unicode="&#x203a;" horiz-adv-x="362" 
d="M61 84l172 184l-171 184h86l154 -160v-49l-154 -159h-87z" />
    <glyph glyph-name="fraction" unicode="&#x2044;" horiz-adv-x="566" 
d="M263 366l229 337h64l-253 -367l-229 -339h-64z" />
    <glyph glyph-name="Euro" unicode="&#x20ac;" horiz-adv-x="694" 
d="M192 413v-63v-57h222v-66h-220q6 -122 30 -144q16 -16 64 -16h163q48 0 64 16q14 13 20.5 43.5t8.5 102.5h78q-4 -91 -15.5 -133t-39.5 -68q-17 -16 -40 -22t-70 -6h-176q-81 0 -110 28q-25 22 -37.5 63.5t-17.5 135.5h-76v66h74v120h-74v66h77q4 90 17 130t37 63
q29 28 110 28h176q81 0 110 -28q28 -26 40 -67.5t14 -122.5h-77q-4 111 -29 135q-16 16 -64 16h-163q-48 0 -64 -16q-24 -22 -30 -138h220v-66h-222z" />
    <glyph glyph-name="uni2117" unicode="&#x2117;" horiz-adv-x="789" 
d="M155 52q-66 68 -66 298t66 298q26 27 61.5 39.5t106.5 12.5h142q71 0 107 -12.5t62 -39.5q65 -67 65 -298t-65 -298q-26 -27 -62 -39.5t-107 -12.5h-142q-71 0 -106.5 12.5t-61.5 39.5zM117 350q0 -221 59 -280q23 -24 54.5 -34.5t97.5 -10.5h133q66 0 97.5 10t53.5 34
q60 62 60 281q0 220 -60 280q-23 24 -54.5 34.5t-96.5 10.5h-133q-66 0 -98 -10t-54 -34q-59 -61 -59 -281zM550 432q0 -72 -30 -102q-16 -17 -59 -17h-139v-150h-46v385h185q45 0 61 -16q28 -28 28 -100zM322 353h129q27 0 37 9q16 16 16 68q0 53 -16 69q-8 8 -37 8h-129
v-154z" />
    <glyph glyph-name="uni2120" unicode="&#x2120;" horiz-adv-x="869" 
d="M343 421q0 -66 -22 -88q-18 -18 -57 -18h-134q-41 0 -56 16q-12 12 -16.5 31t-5.5 69h47q0 -58 10 -68q7 -7 31 -7h115q25 0 32 8q9 10 9 57q0 41 -8 50q-8 8 -34 11l-121 12q-43 4 -58 18q-18 18 -18 83q0 64 22 87q18 18 57 18h123q40 0 56 -16q12 -12 16 -30.5
t5 -66.5h-47q0 54 -10 65q-7 7 -31 7h-103q-23 0 -31 -8q-10 -10 -10 -55q0 -40 10 -49q8 -8 34 -11l121 -11q40 -4 56 -19q18 -18 18 -85zM770 315v339h-7l-106 -322q-4 -11 -8.5 -14t-14.5 -3h-23q-11 0 -15 3.5t-7 13.5l-106 322h-8v-339h-44v385h69q11 0 15.5 -3.5
t6.5 -13.5l100 -315h6l99 315q3 11 7 14t15 3h68v-385h-47z" />
    <glyph glyph-name="trademark" unicode="&#x2122;" horiz-adv-x="849" 
d="M217 315h-47v345h-118v40h283v-40h-118v-345zM751 315v339h-7l-107 -322q-5 -17 -23 -17h-22q-11 0 -15 3.5t-7 13.5l-107 322h-7v-339h-45v385h70q11 0 15 -3.5t7 -13.5l99 -315h7l99 315q3 11 7 14t15 3h67v-385h-46z" />
    <glyph glyph-name="minus" unicode="&#x2212;" horiz-adv-x="514" 
d="M452 396v-66h-390v66h390z" />
    <glyph glyph-name="uniE05D" unicode="&#xe05d;" horiz-adv-x="0" 
 />
    <glyph glyph-name="aring.alt" horiz-adv-x="572" 
d="M155 376h-72q1 96 34 130q22 22 57 26q-12 20 -12 63q0 53 24 78q19 20 66 20h84q47 0 66 -20q24 -25 24 -78q0 -42 -13 -64q31 -7 48 -24t22.5 -42.5t5.5 -80.5v-384h-73v68q-53 -42 -79.5 -55.5t-66.5 -13.5h-78q-71 0 -100 30q-32 30 -32 116q0 89 33 122
q19 19 50.5 27.5t103.5 8.5q91 0 169 -13v89q0 66 -15 81q-13 13 -56 13h-110q-47 0 -62 -15q-17 -18 -18 -82zM330 651h-72q-24 0 -33 -9q-11 -11 -11 -47q0 -34 11 -47q8 -8 33 -8h72q25 0 33 8q11 13 11 47q0 36 -11 47q-9 9 -33 9zM207 62h75q35 0 62.5 10t71.5 38v136
h-174q-45 0 -63 -4t-28 -14q-18 -18 -18 -73q0 -63 16 -78t58 -15z" />
    <glyph glyph-name="aringacute.alt" horiz-adv-x="572" 
d="M336 871h116v-5l-141 -113h-67v5zM155 376h-72q1 96 34 130q22 22 57 26q-12 20 -12 63q0 53 24 78q19 20 66 20h84q47 0 66 -20q24 -25 24 -78q0 -42 -13 -64q31 -7 48 -24t22.5 -42.5t5.5 -80.5v-384h-73v68q-53 -42 -79.5 -55.5t-66.5 -13.5h-78q-71 0 -100 30
q-32 30 -32 116q0 89 33 122q19 19 50.5 27.5t103.5 8.5q91 0 169 -13v89q0 66 -15 81q-13 13 -56 13h-110q-47 0 -62 -15q-17 -18 -18 -82zM330 651h-72q-24 0 -33 -9q-11 -11 -11 -47q0 -34 11 -47q8 -8 33 -8h72q25 0 33 8q11 13 11 47q0 36 -11 47q-9 9 -33 9zM207 62
h75q35 0 62.5 10t71.5 38v136h-174q-45 0 -63 -4t-28 -14q-18 -18 -18 -73q0 -63 16 -78t58 -15z" />
    <glyph glyph-name="i.dot" horiz-adv-x="245" 
d="M79 634v96h88v-96h-88zM86 0v535h74v-535h-74z" />
    <glyph glyph-name="registered.alt" horiz-adv-x="789" 
d="M155 52q-66 68 -66 298t66 298q26 27 61.5 39.5t106.5 12.5h142q71 0 107 -12.5t62 -39.5q65 -67 65 -298t-65 -298q-26 -27 -62 -39.5t-107 -12.5h-142q-71 0 -106.5 12.5t-61.5 39.5zM117 350q0 -221 59 -280q23 -24 54.5 -34.5t97.5 -10.5h133q66 0 97.5 10t53.5 34
q60 62 60 281q0 220 -60 280q-23 24 -54.5 34.5t-96.5 10.5h-133q-66 0 -98 -10t-54 -34q-59 -61 -59 -281zM491 263q-1 41 -13 53q-13 11 -44 11h-123v-164h-47v385h195q41 0 58 -18q24 -24 24 -89q0 -45 -13 -66.5t-43 -28.5v-1q30 -7 41.5 -22.5t12.5 -55.5q1 -69 6 -104
h-47q-5 35 -7 100zM311 366h135q25 0 34 9q14 14 14 62t-14 62q-8 8 -34 8h-135v-141z" />
    <glyph glyph-name="caron.alt" horiz-adv-x="500" 
d="M205 564l23 90q3 14 3 23t-3 24l-19 80v19h84v-74q0 -35 -4.5 -54t-18.5 -45l-37 -74z" />
    <glyph glyph-name="hfjslug" horiz-adv-x="694" 
d="M428 -186h-163l-8 -14h-207v303q14 0 23 9.5t9 22.5t-9.5 22.5t-22.5 9.5v554h100l30 79h334l29 -79h101v-921h-208zM199 391v79h47v-79h15v172h-15v-79h-47v79h-15v-172h15zM415 391v78h38v14h-38v66h43v14h-58v-172h15zM460 409v-15q10 -4 21 -4q31 0 31 36v137h-16
v-137q0 -22 -16 -22q-8 0 -20 5zM371 465l-13 3q-4 -18 -8 -30h-1l-16 31q23 21 23 42q0 13 -7 22t-20 9q-12 0 -20 -9t-8 -22t14 -39q-23 -18 -23 -47q0 -16 8 -26.5t21 -10.5q19 0 29 24h1l12 -24l12 6l-17 32q6 14 13 39zM327 479q-12 22 -12 32q0 19 14 19q13 0 13 -19
q0 -15 -15 -32zM322 462l20 -39q-8 -21 -20 -21q-16 0 -16 25q0 19 16 35zM426 276q10 0 17 7t7 17q0 9 -7 16.5t-17 7.5t-17 -7.5t-7 -16.5q0 -10 7 -17t17 -7zM140 277v32l25 -32h7v46h-8v-32l-25 32h-7v-46h8zM227 277v7h-26v13h23v7h-23v12h26v7h-34v-46h34zM263 276
l11 34h1l11 -34h8l14 47h-8l-10 -35h-1l-11 35h-7l-11 -35h-1l-10 35h-8l14 -47h8zM348 323l18 -29v-17h8v17l18 29h-9l-13 -22l-13 22h-9zM507 277l-12 17q10 4 10 14q0 15 -17 15h-20v-46h8v15h12l10 -15h9zM531 277v12l8 8l15 -20h10l-20 26l18 20h-10l-20 -24h-1v24h-8
v-46h8zM426 283q-16 0 -16 17q0 6 4.5 11.5t11.5 5.5t11.5 -5.5t4.5 -11.5q0 -17 -16 -17zM476 316h11q10 0 10 -8q0 -9 -10 -9h-11v17z" />
    </font>
</defs>
</svg>
